<svg xmlns="http://www.w3.org/2000/svg" width="53" height="41"><path fill="red" d="M24.5 24.502v8a8 8 0 01-8 8h-8a8 8 0 01-8-8v-10c0-10 7.86-18.051 9.438-19.896A5.976 5.976 0 0114.5.502c1.375 0 2.758.473 3.886 1.436a6 6 0 01.68 8.455c-1.359 1.6-2.972 3.873-4.262 6.11H16.5a8 8 0 018 8zm-4 0c0-2.205-1.793-4-4-4h-1.696a3.99 3.99 0 01-3.46-1.997 3.99 3.99 0 01-.004-4.001c1.34-2.328 3.09-4.832 4.676-6.7A2.001 2.001 0 0014.5 4.502c-.343 0-1 .092-1.52.701l-.51.581C10.5 8.008 4.5 14.778 4.5 22.502v10c0 2.205 1.797 4 4 4h8c2.207 0 4-1.795 4-4zm32 0v8a8 8 0 01-8 8h-8a8 8 0 01-8-8v-10c0-10 7.86-18.051 9.438-19.896A5.968 5.968 0 0142.496.502c1.379 0 2.762.473 3.89 1.436a6 6 0 01.68 8.455c-1.359 1.6-2.972 3.873-4.261 6.11H44.5a8 8 0 018 8zm-4 0c0-2.205-1.793-4-4-4h-1.695c-1.43 0-2.75-.761-3.465-1.997a4 4 0 010-4.001c1.34-2.328 3.09-4.832 4.68-6.7a2.005 2.005 0 00-1.524-3.302c-.344 0-.996.092-1.516.7l-.507.578C38.5 8.003 32.5 14.772 32.5 22.502v10c0 2.205 1.793 4 4 4h8c2.207 0 4-1.795 4-4z"/></svg>