<svg xmlns="http://www.w3.org/2000/svg" width="84" height="82"><defs><linearGradient id="c" x1="42.2" x2="42.19" y1="71.14" y2="11.15" gradientUnits="userSpaceOnUse"><stop offset="0" stop-color="#17a56a"/><stop offset="1" stop-color="#75d007"/></linearGradient><filter id="a" width="111.2" height="111.2" x="-13.1" y="-14.1" filterUnits="userSpaceOnUse"><feOffset in="SourceGraphic" result="FeOffset1452Out"/><feGaussianBlur in="FeOffset1452Out" result="FeGaussianBlur1453Out" stdDeviation="5.12 5.12"/></filter><mask id="b" width="2.08" height="2.08" x="-1.04" y="-1.04"><path fill="#fff" d="M9.7 8.7h65.6v65.6H9.7z"/><path d="M14.686 11.442c2.065.796 4.073 1.73 6.132 2.56 2.409-.927 4.695-2.217 7.207-2.852 2.46.694 4.727 1.925 7.117 2.845 2.383-.913 4.65-2.146 7.11-2.845 2.512.628 4.804 1.919 7.213 2.845 2.053-.81 4.054-1.75 6.113-2.54.751-.402 1.742-.409 2.35.272.383 5.418.538 11.147-2.22 16.027-.68 1.16-2.765.045-2.254-1.16.408-2.19 1.62-4.167 1.82-6.403.116-1.867.026-3.74.026-5.605-1.969.744-3.827 1.814-5.887 2.267-2.447-.707-4.707-1.937-7.077-2.852-2.409.915-4.695 2.178-7.188 2.858-2.5-.673-4.785-1.943-7.2-2.858-2.358.915-4.611 2.126-7.046 2.845-2.079-.407-3.93-1.516-5.893-2.274-.246 3.681-.038 7.388 1.477 10.798 5.102.232 10.225-.13 15.32.174.292.253.875.751 1.166.998-.246.409-.738 1.218-.99 1.62-5.11.02-10.225 0-15.334.013-1.088 4.168-2.027 8.4-1.658 12.742-.337 4.491.453 8.918 1.742 13.208 4.973-.038 9.953-.162 14.926.033 1.386.168.971 1.757.55 2.651-5.238.064-10.477 0-15.716.045-1.54 3.396-1.703 7.097-1.496 10.765 1.956-.824 3.912-1.64 5.906-2.378 2.344 1.004 4.708 1.976 7.065 2.962 2.396-.922 4.688-2.127 7.149-2.866 1.198-.019 1.955 1.044 1.58 2.178a92.707 92.707 0 01-8.71 3.585c-2.486-.713-4.785-1.958-7.194-2.885-2.584.94-4.993 2.463-7.725 2.929-.188-.246-.57-.725-.764-.972-.195-2.598-.065-5.216-.091-7.823-.078-2.513 1.412-4.697 1.774-7.128-.414-3.293-1.8-6.43-1.774-9.78.013-3.02-.013-6.04.006-9.054.046-3.3 1.49-6.37 1.755-9.63-.505-2.438-1.916-4.68-1.767-7.24.051-2.6-.15-5.21.168-7.79.57-.7 1.573-.662 2.312-.285zm31.988 20.045c5.77-1.146 11.56 2.003 14.926 6.578 1.373-.602 3.024-1.134 4.384-.148 4.54 2.942 6.65 8.742 6.139 14-.81 9.169-8.425 17.191-17.503 18.573-4.157.603-8.619-.162-12.032-2.709-1.638-1.244-3.34-2.741-3.807-4.841-.305-1.46.719-2.755 1.871-3.5 1.787-1.167 3.788-1.925 5.725-2.793.97-3.215 1.295-6.65.53-9.942-.686-3.752-2.525-7.201-3.01-10.992l-.035-.273c-.159-1.775 1.002-3.627 2.812-3.953zm.007 4.212c.855 4.382 2.966 8.465 3.322 12.963.11 2.074.505 4.452-.81 6.241 1.004 0 1.658-.894 2.416-1.432 3.568-2.95 5.472-7.279 7.472-11.323.208-.686.965-1.542.357-2.216-2.468-3.655-6.787-6.214-11.268-5.911-.926-.077-1.968.629-1.49 1.678.48 1.051 0 0 0 0zm6.896 19.735c-3.199 2.748-7.233 4.116-10.924 6.008-.706.254-1.437 1.063-.783 1.784 2.842 3.836 8.081 5.385 12.672 4.457 8.243-1.451 15.062-9.26 14.842-17.731-.02-3.98-2.04-7.849-5.316-10.11-1.198 1.082-2.066 2.45-2.727 3.907-2.014 4.226-4.086 8.645-7.764 11.685z"/></mask></defs><g filter="url(#a)"><path fill="none" stroke="red" stroke-opacity=".2" stroke-width="4.6" d="M14.686 11.442c2.065.796 4.073 1.73 6.132 2.56 2.409-.927 4.695-2.217 7.207-2.852 2.46.694 4.727 1.925 7.117 2.845 2.383-.913 4.65-2.146 7.11-2.845 2.512.628 4.804 1.919 7.213 2.845 2.053-.81 4.054-1.75 6.113-2.54.751-.402 1.742-.409 2.35.272.383 5.418.538 11.147-2.22 16.027-.68 1.16-2.765.045-2.254-1.16.408-2.19 1.62-4.167 1.82-6.403.116-1.867.026-3.74.026-5.605-1.969.744-3.827 1.814-5.887 2.267-2.447-.707-4.707-1.937-7.077-2.852-2.409.915-4.695 2.178-7.188 2.858-2.5-.673-4.785-1.943-7.2-2.858-2.358.915-4.611 2.126-7.046 2.845-2.079-.407-3.93-1.516-5.893-2.274-.246 3.681-.038 7.388 1.477 10.798 5.102.232 10.225-.13 15.32.174.292.253.875.751 1.166.998-.246.409-.738 1.218-.99 1.62-5.11.02-10.225 0-15.334.013-1.088 4.168-2.027 8.4-1.658 12.742-.337 4.491.453 8.918 1.742 13.208 4.973-.038 9.953-.162 14.926.033 1.386.168.971 1.757.55 2.651-5.238.064-10.477 0-15.716.045-1.54 3.396-1.703 7.097-1.496 10.765 1.956-.824 3.912-1.64 5.906-2.378 2.344 1.004 4.708 1.976 7.065 2.962 2.396-.922 4.688-2.127 7.149-2.866 1.198-.019 1.955 1.044 1.58 2.178a92.707 92.707 0 01-8.71 3.585c-2.486-.713-4.785-1.958-7.194-2.885-2.584.94-4.993 2.463-7.725 2.929-.188-.246-.57-.725-.764-.972-.195-2.598-.065-5.216-.091-7.823-.078-2.513 1.412-4.697 1.774-7.128-.414-3.293-1.8-6.43-1.774-9.78.013-3.02-.013-6.04.006-9.054.046-3.3 1.49-6.37 1.755-9.63-.505-2.438-1.916-4.68-1.767-7.24.051-2.6-.15-5.21.168-7.79.57-.7 1.573-.662 2.312-.285zm31.988 20.045c5.77-1.146 11.56 2.003 14.926 6.578 1.373-.602 3.024-1.134 4.384-.148 4.54 2.942 6.65 8.742 6.139 14-.81 9.169-8.425 17.191-17.503 18.573-4.157.603-8.619-.162-12.032-2.709-1.638-1.244-3.34-2.741-3.807-4.841-.305-1.46.719-2.755 1.871-3.5 1.787-1.167 3.788-1.925 5.725-2.793.97-3.215 1.295-6.65.53-9.942-.686-3.752-2.525-7.201-3.01-10.992l-.035-.273c-.159-1.775 1.002-3.627 2.812-3.953zm.007 4.212c.855 4.382 2.966 8.465 3.322 12.963.11 2.074.505 4.452-.81 6.241 1.004 0 1.658-.894 2.416-1.432 3.568-2.95 5.472-7.279 7.472-11.323.208-.686.965-1.542.357-2.216-2.468-3.655-6.787-6.214-11.268-5.911-.926-.077-1.968.629-1.49 1.678.48 1.051 0 0 0 0zm6.896 19.735c-3.199 2.748-7.233 4.116-10.924 6.008-.706.254-1.437 1.063-.783 1.784 2.842 3.836 8.081 5.385 12.672 4.457 8.243-1.451 15.062-9.26 14.842-17.731-.02-3.98-2.04-7.849-5.316-10.11-1.198 1.082-2.066 2.45-2.727 3.907-2.014 4.226-4.086 8.645-7.764 11.685z" mask="url(&quot;#b&quot;)"/><path fill="red" fill-opacity=".2" d="M14.686 11.442c2.065.796 4.073 1.73 6.132 2.56 2.409-.927 4.695-2.217 7.207-2.852 2.46.694 4.727 1.925 7.117 2.845 2.383-.913 4.65-2.146 7.11-2.845 2.512.628 4.804 1.919 7.213 2.845 2.053-.81 4.054-1.75 6.113-2.54.751-.402 1.742-.409 2.35.272.383 5.418.538 11.147-2.22 16.027-.68 1.16-2.765.045-2.254-1.16.408-2.19 1.62-4.167 1.82-6.403.116-1.867.026-3.74.026-5.605-1.969.744-3.827 1.814-5.887 2.267-2.447-.707-4.707-1.937-7.077-2.852-2.409.915-4.695 2.178-7.188 2.858-2.5-.673-4.785-1.943-7.2-2.858-2.358.915-4.611 2.126-7.046 2.845-2.079-.407-3.93-1.516-5.893-2.274-.246 3.681-.038 7.388 1.477 10.798 5.102.232 10.225-.13 15.32.174.292.253.875.751 1.166.998-.246.409-.738 1.218-.99 1.62-5.11.02-10.225 0-15.334.013-1.088 4.168-2.027 8.4-1.658 12.742-.337 4.491.453 8.918 1.742 13.208 4.973-.038 9.953-.162 14.926.033 1.386.168.971 1.757.55 2.651-5.238.064-10.477 0-15.716.045-1.54 3.396-1.703 7.097-1.496 10.765 1.956-.824 3.912-1.64 5.906-2.378 2.344 1.004 4.708 1.976 7.065 2.962 2.396-.922 4.688-2.127 7.149-2.866 1.198-.019 1.955 1.044 1.58 2.178a92.707 92.707 0 01-8.71 3.585c-2.486-.713-4.785-1.958-7.194-2.885-2.584.94-4.993 2.463-7.725 2.929-.188-.246-.57-.725-.764-.972-.195-2.598-.065-5.216-.091-7.823-.078-2.513 1.412-4.697 1.774-7.128-.414-3.293-1.8-6.43-1.774-9.78.013-3.02-.013-6.04.006-9.054.046-3.3 1.49-6.37 1.755-9.63-.505-2.438-1.916-4.68-1.767-7.24.051-2.6-.15-5.21.168-7.79.57-.7 1.573-.662 2.312-.285zm31.988 20.045c5.77-1.146 11.56 2.003 14.926 6.578 1.373-.602 3.024-1.134 4.384-.148 4.54 2.942 6.65 8.742 6.139 14-.81 9.169-8.425 17.191-17.503 18.573-4.157.603-8.619-.162-12.032-2.709-1.638-1.244-3.34-2.741-3.807-4.841-.305-1.46.719-2.755 1.871-3.5 1.787-1.167 3.788-1.925 5.725-2.793.97-3.215 1.295-6.65.53-9.942-.686-3.752-2.525-7.201-3.01-10.992l-.035-.273c-.159-1.775 1.002-3.627 2.812-3.953zm.007 4.212c.855 4.382 2.966 8.465 3.322 12.963.11 2.074.505 4.452-.81 6.241 1.004 0 1.658-.894 2.416-1.432 3.568-2.95 5.472-7.279 7.472-11.323.208-.686.965-1.542.357-2.216-2.468-3.655-6.787-6.214-11.268-5.911-.926-.077-1.968.629-1.49 1.678.48 1.051 0 0 0 0zm6.896 19.735c-3.199 2.748-7.233 4.116-10.924 6.008-.706.254-1.437 1.063-.783 1.784 2.842 3.836 8.081 5.385 12.672 4.457 8.243-1.451 15.062-9.26 14.842-17.731-.02-3.98-2.04-7.849-5.316-10.11-1.198 1.082-2.066 2.45-2.727 3.907-2.014 4.226-4.086 8.645-7.764 11.685z"/></g><g filter="url(#a)"><path fill="none" stroke="red" stroke-opacity=".2" stroke-width="4.6" d="M14.686 11.442c2.065.796 4.073 1.73 6.132 2.56 2.409-.927 4.695-2.217 7.207-2.852 2.46.694 4.727 1.925 7.117 2.845 2.383-.913 4.65-2.146 7.11-2.845 2.512.628 4.804 1.919 7.213 2.845 2.053-.81 4.054-1.75 6.113-2.54.751-.402 1.742-.409 2.35.272.383 5.418.538 11.147-2.22 16.027-.68 1.16-2.765.045-2.254-1.16.408-2.19 1.62-4.167 1.82-6.403.116-1.867.026-3.74.026-5.605-1.969.744-3.827 1.814-5.887 2.267-2.447-.707-4.707-1.937-7.077-2.852-2.409.915-4.695 2.178-7.188 2.858-2.5-.673-4.785-1.943-7.2-2.858-2.358.915-4.611 2.126-7.046 2.845-2.079-.407-3.93-1.516-5.893-2.274-.246 3.681-.038 7.388 1.477 10.798 5.102.232 10.225-.13 15.32.174.292.253.875.751 1.166.998-.246.409-.738 1.218-.99 1.62-5.11.02-10.225 0-15.334.013-1.088 4.168-2.027 8.4-1.658 12.742-.337 4.491.453 8.918 1.742 13.208 4.973-.038 9.953-.162 14.926.033 1.386.168.971 1.757.55 2.651-5.238.064-10.477 0-15.716.045-1.54 3.396-1.703 7.097-1.496 10.765 1.956-.824 3.912-1.64 5.906-2.378 2.344 1.004 4.708 1.976 7.065 2.962 2.396-.922 4.688-2.127 7.149-2.866 1.198-.019 1.955 1.044 1.58 2.178a92.707 92.707 0 01-8.71 3.585c-2.486-.713-4.785-1.958-7.194-2.885-2.584.94-4.993 2.463-7.725 2.929-.188-.246-.57-.725-.764-.972-.195-2.598-.065-5.216-.091-7.823-.078-2.513 1.412-4.697 1.774-7.128-.414-3.293-1.8-6.43-1.774-9.78.013-3.02-.013-6.04.006-9.054.046-3.3 1.49-6.37 1.755-9.63-.505-2.438-1.916-4.68-1.767-7.24.051-2.6-.15-5.21.168-7.79.57-.7 1.573-.662 2.312-.285zm31.988 20.045c5.77-1.146 11.56 2.003 14.926 6.578 1.373-.602 3.024-1.134 4.384-.148 4.54 2.942 6.65 8.742 6.139 14-.81 9.169-8.425 17.191-17.503 18.573-4.157.603-8.619-.162-12.032-2.709-1.638-1.244-3.34-2.741-3.807-4.841-.305-1.46.719-2.755 1.871-3.5 1.787-1.167 3.788-1.925 5.725-2.793.97-3.215 1.295-6.65.53-9.942-.686-3.752-2.525-7.201-3.01-10.992l-.035-.273c-.159-1.775 1.002-3.627 2.812-3.953zm.007 4.212c.855 4.382 2.966 8.465 3.322 12.963.11 2.074.505 4.452-.81 6.241 1.004 0 1.658-.894 2.416-1.432 3.568-2.95 5.472-7.279 7.472-11.323.208-.686.965-1.542.357-2.216-2.468-3.655-6.787-6.214-11.268-5.911-.926-.077-1.968.629-1.49 1.678.48 1.051 0 0 0 0zm6.896 19.735c-3.199 2.748-7.233 4.116-10.924 6.008-.706.254-1.437 1.063-.783 1.784 2.842 3.836 8.081 5.385 12.672 4.457 8.243-1.451 15.062-9.26 14.842-17.731-.02-3.98-2.04-7.849-5.316-10.11-1.198 1.082-2.066 2.45-2.727 3.907-2.014 4.226-4.086 8.645-7.764 11.685z" mask="url(&quot;#b&quot;)"/><path fill="red" fill-opacity=".2" d="M14.686 11.442c2.065.796 4.073 1.73 6.132 2.56 2.409-.927 4.695-2.217 7.207-2.852 2.46.694 4.727 1.925 7.117 2.845 2.383-.913 4.65-2.146 7.11-2.845 2.512.628 4.804 1.919 7.213 2.845 2.053-.81 4.054-1.75 6.113-2.54.751-.402 1.742-.409 2.35.272.383 5.418.538 11.147-2.22 16.027-.68 1.16-2.765.045-2.254-1.16.408-2.19 1.62-4.167 1.82-6.403.116-1.867.026-3.74.026-5.605-1.969.744-3.827 1.814-5.887 2.267-2.447-.707-4.707-1.937-7.077-2.852-2.409.915-4.695 2.178-7.188 2.858-2.5-.673-4.785-1.943-7.2-2.858-2.358.915-4.611 2.126-7.046 2.845-2.079-.407-3.93-1.516-5.893-2.274-.246 3.681-.038 7.388 1.477 10.798 5.102.232 10.225-.13 15.32.174.292.253.875.751 1.166.998-.246.409-.738 1.218-.99 1.62-5.11.02-10.225 0-15.334.013-1.088 4.168-2.027 8.4-1.658 12.742-.337 4.491.453 8.918 1.742 13.208 4.973-.038 9.953-.162 14.926.033 1.386.168.971 1.757.55 2.651-5.238.064-10.477 0-15.716.045-1.54 3.396-1.703 7.097-1.496 10.765 1.956-.824 3.912-1.64 5.906-2.378 2.344 1.004 4.708 1.976 7.065 2.962 2.396-.922 4.688-2.127 7.149-2.866 1.198-.019 1.955 1.044 1.58 2.178a92.707 92.707 0 01-8.71 3.585c-2.486-.713-4.785-1.958-7.194-2.885-2.584.94-4.993 2.463-7.725 2.929-.188-.246-.57-.725-.764-.972-.195-2.598-.065-5.216-.091-7.823-.078-2.513 1.412-4.697 1.774-7.128-.414-3.293-1.8-6.43-1.774-9.78.013-3.02-.013-6.04.006-9.054.046-3.3 1.49-6.37 1.755-9.63-.505-2.438-1.916-4.68-1.767-7.24.051-2.6-.15-5.21.168-7.79.57-.7 1.573-.662 2.312-.285zm31.988 20.045c5.77-1.146 11.56 2.003 14.926 6.578 1.373-.602 3.024-1.134 4.384-.148 4.54 2.942 6.65 8.742 6.139 14-.81 9.169-8.425 17.191-17.503 18.573-4.157.603-8.619-.162-12.032-2.709-1.638-1.244-3.34-2.741-3.807-4.841-.305-1.46.719-2.755 1.871-3.5 1.787-1.167 3.788-1.925 5.725-2.793.97-3.215 1.295-6.65.53-9.942-.686-3.752-2.525-7.201-3.01-10.992l-.035-.273c-.159-1.775 1.002-3.627 2.812-3.953zm.007 4.212c.855 4.382 2.966 8.465 3.322 12.963.11 2.074.505 4.452-.81 6.241 1.004 0 1.658-.894 2.416-1.432 3.568-2.95 5.472-7.279 7.472-11.323.208-.686.965-1.542.357-2.216-2.468-3.655-6.787-6.214-11.268-5.911-.926-.077-1.968.629-1.49 1.678.48 1.051 0 0 0 0zm6.896 19.735c-3.199 2.748-7.233 4.116-10.924 6.008-.706.254-1.437 1.063-.783 1.784 2.842 3.836 8.081 5.385 12.672 4.457 8.243-1.451 15.062-9.26 14.842-17.731-.02-3.98-2.04-7.849-5.316-10.11-1.198 1.082-2.066 2.45-2.727 3.907-2.014 4.226-4.086 8.645-7.764 11.685z"/></g><path fill="red" d="M14.686 11.442c2.065.796 4.073 1.73 6.132 2.56 2.409-.927 4.695-2.217 7.207-2.852 2.46.694 4.727 1.925 7.117 2.845 2.383-.913 4.65-2.146 7.11-2.845 2.512.628 4.804 1.919 7.213 2.845 2.053-.81 4.054-1.75 6.113-2.54.751-.402 1.742-.409 2.35.272.383 5.418.538 11.147-2.22 16.027-.68 1.16-2.765.045-2.254-1.16.408-2.19 1.62-4.167 1.82-6.403.116-1.867.026-3.74.026-5.605-1.969.744-3.827 1.814-5.887 2.267-2.447-.707-4.707-1.937-7.077-2.852-2.409.915-4.695 2.178-7.188 2.858-2.5-.673-4.785-1.943-7.2-2.858-2.358.915-4.611 2.126-7.046 2.845-2.079-.407-3.93-1.516-5.893-2.274-.246 3.681-.038 7.388 1.477 10.798 5.102.232 10.225-.13 15.32.174.292.253.875.751 1.166.998-.246.409-.738 1.218-.99 1.62-5.11.02-10.225 0-15.334.013-1.088 4.168-2.027 8.4-1.658 12.742-.337 4.491.453 8.918 1.742 13.208 4.973-.038 9.953-.162 14.926.033 1.386.168.971 1.757.55 2.651-5.238.064-10.477 0-15.716.045-1.54 3.396-1.703 7.097-1.496 10.765 1.956-.824 3.912-1.64 5.906-2.378 2.344 1.004 4.708 1.976 7.065 2.962 2.396-.922 4.688-2.127 7.149-2.866 1.198-.019 1.955 1.044 1.58 2.178a92.707 92.707 0 01-8.71 3.585c-2.486-.713-4.785-1.958-7.194-2.885-2.584.94-4.993 2.463-7.725 2.929-.188-.246-.57-.725-.764-.972-.195-2.598-.065-5.216-.091-7.823-.078-2.513 1.412-4.697 1.774-7.128-.414-3.293-1.8-6.43-1.774-9.78.013-3.02-.013-6.04.006-9.054.046-3.3 1.49-6.37 1.755-9.63-.505-2.438-1.916-4.68-1.767-7.24.051-2.6-.15-5.21.168-7.79.57-.7 1.573-.662 2.312-.285zm31.988 20.045c5.77-1.146 11.56 2.003 14.926 6.578 1.373-.602 3.024-1.134 4.384-.148 4.54 2.942 6.65 8.742 6.139 14-.81 9.169-8.425 17.191-17.503 18.573-4.157.603-8.619-.162-12.032-2.709-1.638-1.244-3.34-2.741-3.807-4.841-.305-1.46.719-2.755 1.871-3.5 1.787-1.167 3.788-1.925 5.725-2.793.97-3.215 1.295-6.65.53-9.942-.686-3.752-2.525-7.201-3.01-10.992l-.035-.273c-.159-1.775 1.002-3.627 2.812-3.953zm.007 4.212c.855 4.382 2.966 8.465 3.322 12.963.11 2.074.505 4.452-.81 6.241 1.004 0 1.658-.894 2.416-1.432 3.568-2.95 5.472-7.279 7.472-11.323.208-.686.965-1.542.357-2.216-2.468-3.655-6.787-6.214-11.268-5.911-.926-.077-1.968.629-1.49 1.678.48 1.051 0 0 0 0zm6.896 19.735c-3.199 2.748-7.233 4.116-10.924 6.008-.706.254-1.437 1.063-.783 1.784 2.842 3.836 8.081 5.385 12.672 4.457 8.243-1.451 15.062-9.26 14.842-17.731-.02-3.98-2.04-7.849-5.316-10.11-1.198 1.082-2.066 2.45-2.727 3.907-2.014 4.226-4.086 8.645-7.764 11.685z"/><path fill="url(#c)" d="M14.686 11.442c2.065.796 4.073 1.73 6.132 2.56 2.409-.927 4.695-2.217 7.207-2.852 2.46.694 4.727 1.925 7.117 2.845 2.383-.913 4.65-2.146 7.11-2.845 2.512.628 4.804 1.919 7.213 2.845 2.053-.81 4.054-1.75 6.113-2.54.751-.402 1.742-.409 2.35.272.383 5.418.538 11.147-2.22 16.027-.68 1.16-2.765.045-2.254-1.16.408-2.19 1.62-4.167 1.82-6.403.116-1.867.026-3.74.026-5.605-1.969.744-3.827 1.814-5.887 2.267-2.447-.707-4.707-1.937-7.077-2.852-2.409.915-4.695 2.178-7.188 2.858-2.5-.673-4.785-1.943-7.2-2.858-2.358.915-4.611 2.126-7.046 2.845-2.079-.407-3.93-1.516-5.893-2.274-.246 3.681-.038 7.388 1.477 10.798 5.102.232 10.225-.13 15.32.174.292.253.875.751 1.166.998-.246.409-.738 1.218-.99 1.62-5.11.02-10.225 0-15.334.013-1.088 4.168-2.027 8.4-1.658 12.742-.337 4.491.453 8.918 1.742 13.208 4.973-.038 9.953-.162 14.926.033 1.386.168.971 1.757.55 2.651-5.238.064-10.477 0-15.716.045-1.54 3.396-1.703 7.097-1.496 10.765 1.956-.824 3.912-1.64 5.906-2.378 2.344 1.004 4.708 1.976 7.065 2.962 2.396-.922 4.688-2.127 7.149-2.866 1.198-.019 1.955 1.044 1.58 2.178a92.707 92.707 0 01-8.71 3.585c-2.486-.713-4.785-1.958-7.194-2.885-2.584.94-4.993 2.463-7.725 2.929-.188-.246-.57-.725-.764-.972-.195-2.598-.065-5.216-.091-7.823-.078-2.513 1.412-4.697 1.774-7.128-.414-3.293-1.8-6.43-1.774-9.78.013-3.02-.013-6.04.006-9.054.046-3.3 1.49-6.37 1.755-9.63-.505-2.438-1.916-4.68-1.767-7.24.051-2.6-.15-5.21.168-7.79.57-.7 1.573-.662 2.312-.285zm31.988 20.045c5.77-1.146 11.56 2.003 14.926 6.578 1.373-.602 3.024-1.134 4.384-.148 4.54 2.942 6.65 8.742 6.139 14-.81 9.169-8.425 17.191-17.503 18.573-4.157.603-8.619-.162-12.032-2.709-1.638-1.244-3.34-2.741-3.807-4.841-.305-1.46.719-2.755 1.871-3.5 1.787-1.167 3.788-1.925 5.725-2.793.97-3.215 1.295-6.65.53-9.942-.686-3.752-2.525-7.201-3.01-10.992l-.035-.273c-.159-1.775 1.002-3.627 2.812-3.953zm.007 4.212c.855 4.382 2.966 8.465 3.322 12.963.11 2.074.505 4.452-.81 6.241 1.004 0 1.658-.894 2.416-1.432 3.568-2.95 5.472-7.279 7.472-11.323.208-.686.965-1.542.357-2.216-2.468-3.655-6.787-6.214-11.268-5.911-.926-.077-1.968.629-1.49 1.678.48 1.051 0 0 0 0zm6.896 19.735c-3.199 2.748-7.233 4.116-10.924 6.008-.706.254-1.437 1.063-.783 1.784 2.842 3.836 8.081 5.385 12.672 4.457 8.243-1.451 15.062-9.26 14.842-17.731-.02-3.98-2.04-7.849-5.316-10.11-1.198 1.082-2.066 2.45-2.727 3.907-2.014 4.226-4.086 8.645-7.764 11.685z"/></svg>