<svg xmlns="http://www.w3.org/2000/svg" width="31" height="25" viewBox="0 0 31 25"><path d="M31 19.072c0 .55-.438.996-.978.996H16.478v2.938h2.249c.54 0 .978.446.978.997 0 .549-.438.996-.978.996h-6.454a.988.988 0 0 1-.978-.996c0-.55.438-.997.978-.997h2.249v-2.938H.978A.988.988 0 0 1 0 19.072c0-.55.438-.996.978-.996H2.42V7.568c0-.55.438-.997.978-.997h3.056V.994c0-.55.438-.996.978-.996h16.136c.54 0 .978.446.978.996v5.577H27.6c.54 0 .978.447.978.997v10.508h1.443c.54 0 .978.446.978.996zM8.41 6.572h14.18V1.99H8.41zm18.213 1.992H4.376v1.311a.968.968 0 0 1 .52.276 1.005 1.005 0 0 1 0 1.408.973.973 0 0 1-.52.275v2.298c.39-.046.61-.26 1.007-.681.52-.55 1.23-1.301 2.587-1.301 1.358 0 2.068.751 2.587 1.301.453.479.674.69 1.178.69.504 0 .726-.211 1.178-.69.52-.55 1.23-1.301 2.587-1.301 1.358 0 2.068.751 2.587 1.301.453.479.674.69 1.178.69.504 0 .725-.211 1.178-.69.519-.55 1.23-1.301 2.587-1.301 1.357 0 2.068.751 2.587 1.301.398.421.617.635 1.006.68v-2.297a.98.98 0 0 1-.52-.275 1.01 1.01 0 0 1 0-1.408.97.97 0 0 1 .52-.276zM4.376 18.076h22.247v-1.948c-1.245-.06-1.92-.77-2.415-1.296-.453-.479-.674-.69-1.178-.69-.504 0-.725.211-1.178.69-.519.55-1.23 1.302-2.587 1.302-1.357 0-2.068-.752-2.587-1.302-.453-.479-.674-.69-1.178-.69-.504 0-.725.211-1.178.69-.518.55-1.23 1.302-2.587 1.302-1.357 0-2.068-.752-2.587-1.302-.453-.479-.674-.69-1.178-.69-.504 0-.725.211-1.178.69-.496.526-1.17 1.235-2.416 1.296zm6.667-6.517a1.01 1.01 0 0 1 0-1.408.976.976 0 0 1 .692-.292c.258 0 .509.107.69.292a1.005 1.005 0 0 1 0 1.408.977.977 0 0 1-.69.292.98.98 0 0 1-.692-.292zm7.53 0a1.01 1.01 0 0 1 0-1.408.976.976 0 0 1 .691-.292c.259 0 .51.107.692.292a1.006 1.006 0 0 1 0 1.408.977.977 0 0 1-.692.292.977.977 0 0 1-.691-.292zM11.35 3.577a1.009 1.009 0 0 1 0 1.408.97.97 0 0 1-.691.292.973.973 0 0 1-.692-.292 1.01 1.01 0 0 1 0-1.408.975.975 0 0 1 .692-.292c.257 0 .51.106.69.292zm4.84 0a1.009 1.009 0 0 1 0 1.408.971.971 0 0 1-.69.292.974.974 0 0 1-.692-.292 1.01 1.01 0 0 1 0-1.408.975.975 0 0 1 .691-.292c.258 0 .51.106.692.292zm4.841 0a1.008 1.008 0 0 1 0 1.408.971.971 0 0 1-.69.292.973.973 0 0 1-.692-.292 1.01 1.01 0 0 1 0-1.408.975.975 0 0 1 .691-.292c.258 0 .51.106.691.292z"/></svg>