<svg xmlns="http://www.w3.org/2000/svg" width="97" height="83"><defs><linearGradient id="c" x1="48.25" x2="48.26" y1="71.43" y2="11.43" gradientUnits="userSpaceOnUse"><stop offset="0" stop-color="#17a56a"/><stop offset="1" stop-color="#75d007"/></linearGradient><filter id="a" width="125.2" height="111.2" x="-14.1" y="-14.1" filterUnits="userSpaceOnUse"><feOffset in="SourceGraphic" result="FeOffset1410Out"/><feGaussianBlur in="FeOffset1410Out" result="FeGaussianBlur1411Out" stdDeviation="5.12 5.12"/></filter><mask id="b" width="2.06" height="2.08" x="-1.03" y="-1.04"><path fill="#fff" d="M8.7 8.7h79.6v65.6H8.7z"/><path d="M64.716 12.469c-.153 1.285-1.185 2.272-1.272 3.584.92 1.947 2.87 3.61 2.471 5.991-.187 1.845-1.638 5.092-3.902 3.536-.38-1.535.859-2.778 1.145-4.205-.533-1.481-1.691-2.604-2.277-4.044-.713-2.009.06-4.477 1.758-5.706.805-.488 1.671.106 2.077.844zm-30.692 1.812c-1.338 1.549.173 3.111 1.026 4.422 1.611 2.273.825 5.714-1.339 7.33-1.085.237-2.31-.669-1.711-1.819.732-1.453 1.551-3.286.173-4.631-2.018-2.124-2.178-5.822.173-7.75 1.638-1.392 3.103 1.122 1.678 2.448zm14.937-2.704l.879 1.487c-.566 1.008-1.805 2.042-1.246 3.333.593 1.123 1.439 2.083 1.985 3.24.819 2.15.066 4.747-1.605 6.261-1.012.447-1.711-.398-2.39-.986.572-1.306 1.85-2.651 1.311-4.174-1.045-1.838-2.883-3.685-2.184-6.01.38-1.501 1.365-3.76 3.25-3.151zM28.557 35.818c.288-.117.58-.218.873-.305 1.468-.512.74-.258 0 0 3.812-1.123 8.016.241 10.854 3.01 2.364-2.192 5.48-3.691 8.75-3.36 2.744.094 5.167 1.575 7.192 3.36 2.537-2.367 5.98-3.874 9.463-3.286 4.847.575 8.683 4.821 9.396 9.642 2.87-.134 6.026.393 7.997 2.739 3.25 3.34 2.77 9.406-.925 12.212-1.951 1.684-4.602 1.873-7.04 1.852-.672 3.39-2.503 6.648-5.573 8.318-4.242 2.536-9.869 1.495-13.318-1.947-2.19 1.967-4.948 3.482-7.958 3.34-3.016.15-5.78-1.373-7.99-3.333-2.525 2.326-5.908 3.807-9.357 3.253-4.934-.453-8.737-4.809-9.523-9.63-2.75.095-5.74-.331-7.724-2.461-3.256-3.138-3.223-8.96.14-12.003 1.97-2.056 4.9-2.42 7.584-2.325.713-3.997 3.283-7.723 7.16-9.076zm-4.235 9.887c-.12 4.968-.107 9.954-.014 14.93.014 4.517 4.262 8.371 8.684 7.865 2.89-.15 5.187-2.225 6.74-4.544 1.55.21 2.323 1.67 3.395 2.636 3.044 2.84 8.364 2.516 10.988-.75.779-.71 1.358-2.15 2.637-1.664 1.625 1.677 3.183 3.712 5.62 4.152 4.688 1.278 9.843-2.711 9.796-7.648.027-5.004.06-10.009-.013-15.012-.047-5.111-5.734-9.04-10.449-7.228-2.33.575-3.529 2.84-5.354 4.178-2.197-1.156-3.39-3.955-6.086-4.327-4.049-1.312-7.538 1.59-9.922 4.558-1.925-1.624-3.41-4.036-6.027-4.551-4.681-1.446-9.862 2.489-9.995 7.405-.133 4.915 0 0 0 0zm-8.104 3.24c-2.57 1.864-2.857 6.078-.506 8.255 1.491 1.588 3.769 1.588 5.78 1.575-.107-3.658-.034-7.31-.06-10.961-1.772.081-3.776-.149-5.214 1.13-1.439 1.277 0 0 0 0zm58.867 9.878c1.858-.061 3.935.007 5.407-1.36 2.577-2.04 2.537-6.443-.087-8.425-1.451-1.366-3.516-1.163-5.334-1.23-.006 3.672-.04 7.336.014 11.015zm-38.497-14.43c-.193.852-.706 1.365-1.552 1.534-.912-.513-1.678-1.278-2.67-1.622-1.418.074-2.344 2.4-3.782 1.19-1.339-1.461.632-3.13 1.924-3.713 2.264-1.034 5.28.17 6.08 2.61zm15.689-.602c.666.905-.38 2.048-1.305 2.136-.906-.52-1.678-1.278-2.664-1.63-1.165.136-1.891 1.144-2.743 1.847-.7-.589-2.005-1.237-1.339-2.367 1.565-3.104 6.52-3.118 8.051.014zm15.922-.027c.733.865-.326 2.001-1.205 2.17-.906-.527-1.738-1.163-2.657-1.637-1.192.062-1.911 1.123-2.764 1.813-.879-.535-1.978-1.136-1.412-2.373 1.625-3.024 6.48-3.084 8.038.027z"/></mask></defs><g filter="url(#a)"><path fill="none" stroke="red" stroke-opacity=".2" stroke-width="4.6" d="M64.716 12.469c-.153 1.285-1.185 2.272-1.272 3.584.92 1.947 2.87 3.61 2.471 5.991-.187 1.845-1.638 5.092-3.902 3.536-.38-1.535.859-2.778 1.145-4.205-.533-1.481-1.691-2.604-2.277-4.044-.713-2.009.06-4.477 1.758-5.706.805-.488 1.671.106 2.077.844zm-30.692 1.812c-1.338 1.549.173 3.111 1.026 4.422 1.611 2.273.825 5.714-1.339 7.33-1.085.237-2.31-.669-1.711-1.819.732-1.453 1.551-3.286.173-4.631-2.018-2.124-2.178-5.822.173-7.75 1.638-1.392 3.103 1.122 1.678 2.448zm14.937-2.704l.879 1.487c-.566 1.008-1.805 2.042-1.246 3.333.593 1.123 1.439 2.083 1.985 3.24.819 2.15.066 4.747-1.605 6.261-1.012.447-1.711-.398-2.39-.986.572-1.306 1.85-2.651 1.311-4.174-1.045-1.838-2.883-3.685-2.184-6.01.38-1.501 1.365-3.76 3.25-3.151zM28.557 35.818c.288-.117.58-.218.873-.305 1.468-.512.74-.258 0 0 3.812-1.123 8.016.241 10.854 3.01 2.364-2.192 5.48-3.691 8.75-3.36 2.744.094 5.167 1.575 7.192 3.36 2.537-2.367 5.98-3.874 9.463-3.286 4.847.575 8.683 4.821 9.396 9.642 2.87-.134 6.026.393 7.997 2.739 3.25 3.34 2.77 9.406-.925 12.212-1.951 1.684-4.602 1.873-7.04 1.852-.672 3.39-2.503 6.648-5.573 8.318-4.242 2.536-9.869 1.495-13.318-1.947-2.19 1.967-4.948 3.482-7.958 3.34-3.016.15-5.78-1.373-7.99-3.333-2.525 2.326-5.908 3.807-9.357 3.253-4.934-.453-8.737-4.809-9.523-9.63-2.75.095-5.74-.331-7.724-2.461-3.256-3.138-3.223-8.96.14-12.003 1.97-2.056 4.9-2.42 7.584-2.325.713-3.997 3.283-7.723 7.16-9.076zm-4.235 9.887c-.12 4.968-.107 9.954-.014 14.93.014 4.517 4.262 8.371 8.684 7.865 2.89-.15 5.187-2.225 6.74-4.544 1.55.21 2.323 1.67 3.395 2.636 3.044 2.84 8.364 2.516 10.988-.75.779-.71 1.358-2.15 2.637-1.664 1.625 1.677 3.183 3.712 5.62 4.152 4.688 1.278 9.843-2.711 9.796-7.648.027-5.004.06-10.009-.013-15.012-.047-5.111-5.734-9.04-10.449-7.228-2.33.575-3.529 2.84-5.354 4.178-2.197-1.156-3.39-3.955-6.086-4.327-4.049-1.312-7.538 1.59-9.922 4.558-1.925-1.624-3.41-4.036-6.027-4.551-4.681-1.446-9.862 2.489-9.995 7.405-.133 4.915 0 0 0 0zm-8.104 3.24c-2.57 1.864-2.857 6.078-.506 8.255 1.491 1.588 3.769 1.588 5.78 1.575-.107-3.658-.034-7.31-.06-10.961-1.772.081-3.776-.149-5.214 1.13-1.439 1.277 0 0 0 0zm58.867 9.878c1.858-.061 3.935.007 5.407-1.36 2.577-2.04 2.537-6.443-.087-8.425-1.451-1.366-3.516-1.163-5.334-1.23-.006 3.672-.04 7.336.014 11.015zm-38.497-14.43c-.193.852-.706 1.365-1.552 1.534-.912-.513-1.678-1.278-2.67-1.622-1.418.074-2.344 2.4-3.782 1.19-1.339-1.461.632-3.13 1.924-3.713 2.264-1.034 5.28.17 6.08 2.61zm15.689-.602c.666.905-.38 2.048-1.305 2.136-.906-.52-1.678-1.278-2.664-1.63-1.165.136-1.891 1.144-2.743 1.847-.7-.589-2.005-1.237-1.339-2.367 1.565-3.104 6.52-3.118 8.051.014zm15.922-.027c.733.865-.326 2.001-1.205 2.17-.906-.527-1.738-1.163-2.657-1.637-1.192.062-1.911 1.123-2.764 1.813-.879-.535-1.978-1.136-1.412-2.373 1.625-3.024 6.48-3.084 8.038.027z" mask="url(&quot;#b&quot;)"/><path fill="red" fill-opacity=".2" d="M64.716 12.469c-.153 1.285-1.185 2.272-1.272 3.584.92 1.947 2.87 3.61 2.471 5.991-.187 1.845-1.638 5.092-3.902 3.536-.38-1.535.859-2.778 1.145-4.205-.533-1.481-1.691-2.604-2.277-4.044-.713-2.009.06-4.477 1.758-5.706.805-.488 1.671.106 2.077.844zm-30.692 1.812c-1.338 1.549.173 3.111 1.026 4.422 1.611 2.273.825 5.714-1.339 7.33-1.085.237-2.31-.669-1.711-1.819.732-1.453 1.551-3.286.173-4.631-2.018-2.124-2.178-5.822.173-7.75 1.638-1.392 3.103 1.122 1.678 2.448zm14.937-2.704l.879 1.487c-.566 1.008-1.805 2.042-1.246 3.333.593 1.123 1.439 2.083 1.985 3.24.819 2.15.066 4.747-1.605 6.261-1.012.447-1.711-.398-2.39-.986.572-1.306 1.85-2.651 1.311-4.174-1.045-1.838-2.883-3.685-2.184-6.01.38-1.501 1.365-3.76 3.25-3.151zM28.557 35.818c.288-.117.58-.218.873-.305 1.468-.512.74-.258 0 0 3.812-1.123 8.016.241 10.854 3.01 2.364-2.192 5.48-3.691 8.75-3.36 2.744.094 5.167 1.575 7.192 3.36 2.537-2.367 5.98-3.874 9.463-3.286 4.847.575 8.683 4.821 9.396 9.642 2.87-.134 6.026.393 7.997 2.739 3.25 3.34 2.77 9.406-.925 12.212-1.951 1.684-4.602 1.873-7.04 1.852-.672 3.39-2.503 6.648-5.573 8.318-4.242 2.536-9.869 1.495-13.318-1.947-2.19 1.967-4.948 3.482-7.958 3.34-3.016.15-5.78-1.373-7.99-3.333-2.525 2.326-5.908 3.807-9.357 3.253-4.934-.453-8.737-4.809-9.523-9.63-2.75.095-5.74-.331-7.724-2.461-3.256-3.138-3.223-8.96.14-12.003 1.97-2.056 4.9-2.42 7.584-2.325.713-3.997 3.283-7.723 7.16-9.076zm-4.235 9.887c-.12 4.968-.107 9.954-.014 14.93.014 4.517 4.262 8.371 8.684 7.865 2.89-.15 5.187-2.225 6.74-4.544 1.55.21 2.323 1.67 3.395 2.636 3.044 2.84 8.364 2.516 10.988-.75.779-.71 1.358-2.15 2.637-1.664 1.625 1.677 3.183 3.712 5.62 4.152 4.688 1.278 9.843-2.711 9.796-7.648.027-5.004.06-10.009-.013-15.012-.047-5.111-5.734-9.04-10.449-7.228-2.33.575-3.529 2.84-5.354 4.178-2.197-1.156-3.39-3.955-6.086-4.327-4.049-1.312-7.538 1.59-9.922 4.558-1.925-1.624-3.41-4.036-6.027-4.551-4.681-1.446-9.862 2.489-9.995 7.405-.133 4.915 0 0 0 0zm-8.104 3.24c-2.57 1.864-2.857 6.078-.506 8.255 1.491 1.588 3.769 1.588 5.78 1.575-.107-3.658-.034-7.31-.06-10.961-1.772.081-3.776-.149-5.214 1.13-1.439 1.277 0 0 0 0zm58.867 9.878c1.858-.061 3.935.007 5.407-1.36 2.577-2.04 2.537-6.443-.087-8.425-1.451-1.366-3.516-1.163-5.334-1.23-.006 3.672-.04 7.336.014 11.015zm-38.497-14.43c-.193.852-.706 1.365-1.552 1.534-.912-.513-1.678-1.278-2.67-1.622-1.418.074-2.344 2.4-3.782 1.19-1.339-1.461.632-3.13 1.924-3.713 2.264-1.034 5.28.17 6.08 2.61zm15.689-.602c.666.905-.38 2.048-1.305 2.136-.906-.52-1.678-1.278-2.664-1.63-1.165.136-1.891 1.144-2.743 1.847-.7-.589-2.005-1.237-1.339-2.367 1.565-3.104 6.52-3.118 8.051.014zm15.922-.027c.733.865-.326 2.001-1.205 2.17-.906-.527-1.738-1.163-2.657-1.637-1.192.062-1.911 1.123-2.764 1.813-.879-.535-1.978-1.136-1.412-2.373 1.625-3.024 6.48-3.084 8.038.027z"/></g><g filter="url(#a)"><path fill="none" stroke="red" stroke-opacity=".2" stroke-width="4.6" d="M64.716 12.469c-.153 1.285-1.185 2.272-1.272 3.584.92 1.947 2.87 3.61 2.471 5.991-.187 1.845-1.638 5.092-3.902 3.536-.38-1.535.859-2.778 1.145-4.205-.533-1.481-1.691-2.604-2.277-4.044-.713-2.009.06-4.477 1.758-5.706.805-.488 1.671.106 2.077.844zm-30.692 1.812c-1.338 1.549.173 3.111 1.026 4.422 1.611 2.273.825 5.714-1.339 7.33-1.085.237-2.31-.669-1.711-1.819.732-1.453 1.551-3.286.173-4.631-2.018-2.124-2.178-5.822.173-7.75 1.638-1.392 3.103 1.122 1.678 2.448zm14.937-2.704l.879 1.487c-.566 1.008-1.805 2.042-1.246 3.333.593 1.123 1.439 2.083 1.985 3.24.819 2.15.066 4.747-1.605 6.261-1.012.447-1.711-.398-2.39-.986.572-1.306 1.85-2.651 1.311-4.174-1.045-1.838-2.883-3.685-2.184-6.01.38-1.501 1.365-3.76 3.25-3.151zM28.557 35.818c.288-.117.58-.218.873-.305 1.468-.512.74-.258 0 0 3.812-1.123 8.016.241 10.854 3.01 2.364-2.192 5.48-3.691 8.75-3.36 2.744.094 5.167 1.575 7.192 3.36 2.537-2.367 5.98-3.874 9.463-3.286 4.847.575 8.683 4.821 9.396 9.642 2.87-.134 6.026.393 7.997 2.739 3.25 3.34 2.77 9.406-.925 12.212-1.951 1.684-4.602 1.873-7.04 1.852-.672 3.39-2.503 6.648-5.573 8.318-4.242 2.536-9.869 1.495-13.318-1.947-2.19 1.967-4.948 3.482-7.958 3.34-3.016.15-5.78-1.373-7.99-3.333-2.525 2.326-5.908 3.807-9.357 3.253-4.934-.453-8.737-4.809-9.523-9.63-2.75.095-5.74-.331-7.724-2.461-3.256-3.138-3.223-8.96.14-12.003 1.97-2.056 4.9-2.42 7.584-2.325.713-3.997 3.283-7.723 7.16-9.076zm-4.235 9.887c-.12 4.968-.107 9.954-.014 14.93.014 4.517 4.262 8.371 8.684 7.865 2.89-.15 5.187-2.225 6.74-4.544 1.55.21 2.323 1.67 3.395 2.636 3.044 2.84 8.364 2.516 10.988-.75.779-.71 1.358-2.15 2.637-1.664 1.625 1.677 3.183 3.712 5.62 4.152 4.688 1.278 9.843-2.711 9.796-7.648.027-5.004.06-10.009-.013-15.012-.047-5.111-5.734-9.04-10.449-7.228-2.33.575-3.529 2.84-5.354 4.178-2.197-1.156-3.39-3.955-6.086-4.327-4.049-1.312-7.538 1.59-9.922 4.558-1.925-1.624-3.41-4.036-6.027-4.551-4.681-1.446-9.862 2.489-9.995 7.405-.133 4.915 0 0 0 0zm-8.104 3.24c-2.57 1.864-2.857 6.078-.506 8.255 1.491 1.588 3.769 1.588 5.78 1.575-.107-3.658-.034-7.31-.06-10.961-1.772.081-3.776-.149-5.214 1.13-1.439 1.277 0 0 0 0zm58.867 9.878c1.858-.061 3.935.007 5.407-1.36 2.577-2.04 2.537-6.443-.087-8.425-1.451-1.366-3.516-1.163-5.334-1.23-.006 3.672-.04 7.336.014 11.015zm-38.497-14.43c-.193.852-.706 1.365-1.552 1.534-.912-.513-1.678-1.278-2.67-1.622-1.418.074-2.344 2.4-3.782 1.19-1.339-1.461.632-3.13 1.924-3.713 2.264-1.034 5.28.17 6.08 2.61zm15.689-.602c.666.905-.38 2.048-1.305 2.136-.906-.52-1.678-1.278-2.664-1.63-1.165.136-1.891 1.144-2.743 1.847-.7-.589-2.005-1.237-1.339-2.367 1.565-3.104 6.52-3.118 8.051.014zm15.922-.027c.733.865-.326 2.001-1.205 2.17-.906-.527-1.738-1.163-2.657-1.637-1.192.062-1.911 1.123-2.764 1.813-.879-.535-1.978-1.136-1.412-2.373 1.625-3.024 6.48-3.084 8.038.027z" mask="url(&quot;#b&quot;)"/><path fill="red" fill-opacity=".2" d="M64.716 12.469c-.153 1.285-1.185 2.272-1.272 3.584.92 1.947 2.87 3.61 2.471 5.991-.187 1.845-1.638 5.092-3.902 3.536-.38-1.535.859-2.778 1.145-4.205-.533-1.481-1.691-2.604-2.277-4.044-.713-2.009.06-4.477 1.758-5.706.805-.488 1.671.106 2.077.844zm-30.692 1.812c-1.338 1.549.173 3.111 1.026 4.422 1.611 2.273.825 5.714-1.339 7.33-1.085.237-2.31-.669-1.711-1.819.732-1.453 1.551-3.286.173-4.631-2.018-2.124-2.178-5.822.173-7.75 1.638-1.392 3.103 1.122 1.678 2.448zm14.937-2.704l.879 1.487c-.566 1.008-1.805 2.042-1.246 3.333.593 1.123 1.439 2.083 1.985 3.24.819 2.15.066 4.747-1.605 6.261-1.012.447-1.711-.398-2.39-.986.572-1.306 1.85-2.651 1.311-4.174-1.045-1.838-2.883-3.685-2.184-6.01.38-1.501 1.365-3.76 3.25-3.151zM28.557 35.818c.288-.117.58-.218.873-.305 1.468-.512.74-.258 0 0 3.812-1.123 8.016.241 10.854 3.01 2.364-2.192 5.48-3.691 8.75-3.36 2.744.094 5.167 1.575 7.192 3.36 2.537-2.367 5.98-3.874 9.463-3.286 4.847.575 8.683 4.821 9.396 9.642 2.87-.134 6.026.393 7.997 2.739 3.25 3.34 2.77 9.406-.925 12.212-1.951 1.684-4.602 1.873-7.04 1.852-.672 3.39-2.503 6.648-5.573 8.318-4.242 2.536-9.869 1.495-13.318-1.947-2.19 1.967-4.948 3.482-7.958 3.34-3.016.15-5.78-1.373-7.99-3.333-2.525 2.326-5.908 3.807-9.357 3.253-4.934-.453-8.737-4.809-9.523-9.63-2.75.095-5.74-.331-7.724-2.461-3.256-3.138-3.223-8.96.14-12.003 1.97-2.056 4.9-2.42 7.584-2.325.713-3.997 3.283-7.723 7.16-9.076zm-4.235 9.887c-.12 4.968-.107 9.954-.014 14.93.014 4.517 4.262 8.371 8.684 7.865 2.89-.15 5.187-2.225 6.74-4.544 1.55.21 2.323 1.67 3.395 2.636 3.044 2.84 8.364 2.516 10.988-.75.779-.71 1.358-2.15 2.637-1.664 1.625 1.677 3.183 3.712 5.62 4.152 4.688 1.278 9.843-2.711 9.796-7.648.027-5.004.06-10.009-.013-15.012-.047-5.111-5.734-9.04-10.449-7.228-2.33.575-3.529 2.84-5.354 4.178-2.197-1.156-3.39-3.955-6.086-4.327-4.049-1.312-7.538 1.59-9.922 4.558-1.925-1.624-3.41-4.036-6.027-4.551-4.681-1.446-9.862 2.489-9.995 7.405-.133 4.915 0 0 0 0zm-8.104 3.24c-2.57 1.864-2.857 6.078-.506 8.255 1.491 1.588 3.769 1.588 5.78 1.575-.107-3.658-.034-7.31-.06-10.961-1.772.081-3.776-.149-5.214 1.13-1.439 1.277 0 0 0 0zm58.867 9.878c1.858-.061 3.935.007 5.407-1.36 2.577-2.04 2.537-6.443-.087-8.425-1.451-1.366-3.516-1.163-5.334-1.23-.006 3.672-.04 7.336.014 11.015zm-38.497-14.43c-.193.852-.706 1.365-1.552 1.534-.912-.513-1.678-1.278-2.67-1.622-1.418.074-2.344 2.4-3.782 1.19-1.339-1.461.632-3.13 1.924-3.713 2.264-1.034 5.28.17 6.08 2.61zm15.689-.602c.666.905-.38 2.048-1.305 2.136-.906-.52-1.678-1.278-2.664-1.63-1.165.136-1.891 1.144-2.743 1.847-.7-.589-2.005-1.237-1.339-2.367 1.565-3.104 6.52-3.118 8.051.014zm15.922-.027c.733.865-.326 2.001-1.205 2.17-.906-.527-1.738-1.163-2.657-1.637-1.192.062-1.911 1.123-2.764 1.813-.879-.535-1.978-1.136-1.412-2.373 1.625-3.024 6.48-3.084 8.038.027z"/></g><path fill="red" d="M64.716 12.469c-.153 1.285-1.185 2.272-1.272 3.584.92 1.947 2.87 3.61 2.471 5.991-.187 1.845-1.638 5.092-3.902 3.536-.38-1.535.859-2.778 1.145-4.205-.533-1.481-1.691-2.604-2.277-4.044-.713-2.009.06-4.477 1.758-5.706.805-.488 1.671.106 2.077.844zm-30.692 1.812c-1.338 1.549.173 3.111 1.026 4.422 1.611 2.273.825 5.714-1.339 7.33-1.085.237-2.31-.669-1.711-1.819.732-1.453 1.551-3.286.173-4.631-2.018-2.124-2.178-5.822.173-7.75 1.638-1.392 3.103 1.122 1.678 2.448zm14.937-2.704l.879 1.487c-.566 1.008-1.805 2.042-1.246 3.333.593 1.123 1.439 2.083 1.985 3.24.819 2.15.066 4.747-1.605 6.261-1.012.447-1.711-.398-2.39-.986.572-1.306 1.85-2.651 1.311-4.174-1.045-1.838-2.883-3.685-2.184-6.01.38-1.501 1.365-3.76 3.25-3.151zM28.557 35.818c.288-.117.58-.218.873-.305 1.468-.512.74-.258 0 0 3.812-1.123 8.016.241 10.854 3.01 2.364-2.192 5.48-3.691 8.75-3.36 2.744.094 5.167 1.575 7.192 3.36 2.537-2.367 5.98-3.874 9.463-3.286 4.847.575 8.683 4.821 9.396 9.642 2.87-.134 6.026.393 7.997 2.739 3.25 3.34 2.77 9.406-.925 12.212-1.951 1.684-4.602 1.873-7.04 1.852-.672 3.39-2.503 6.648-5.573 8.318-4.242 2.536-9.869 1.495-13.318-1.947-2.19 1.967-4.948 3.482-7.958 3.34-3.016.15-5.78-1.373-7.99-3.333-2.525 2.326-5.908 3.807-9.357 3.253-4.934-.453-8.737-4.809-9.523-9.63-2.75.095-5.74-.331-7.724-2.461-3.256-3.138-3.223-8.96.14-12.003 1.97-2.056 4.9-2.42 7.584-2.325.713-3.997 3.283-7.723 7.16-9.076zm-4.235 9.887c-.12 4.968-.107 9.954-.014 14.93.014 4.517 4.262 8.371 8.684 7.865 2.89-.15 5.187-2.225 6.74-4.544 1.55.21 2.323 1.67 3.395 2.636 3.044 2.84 8.364 2.516 10.988-.75.779-.71 1.358-2.15 2.637-1.664 1.625 1.677 3.183 3.712 5.62 4.152 4.688 1.278 9.843-2.711 9.796-7.648.027-5.004.06-10.009-.013-15.012-.047-5.111-5.734-9.04-10.449-7.228-2.33.575-3.529 2.84-5.354 4.178-2.197-1.156-3.39-3.955-6.086-4.327-4.049-1.312-7.538 1.59-9.922 4.558-1.925-1.624-3.41-4.036-6.027-4.551-4.681-1.446-9.862 2.489-9.995 7.405-.133 4.915 0 0 0 0zm-8.104 3.24c-2.57 1.864-2.857 6.078-.506 8.255 1.491 1.588 3.769 1.588 5.78 1.575-.107-3.658-.034-7.31-.06-10.961-1.772.081-3.776-.149-5.214 1.13-1.439 1.277 0 0 0 0zm58.867 9.878c1.858-.061 3.935.007 5.407-1.36 2.577-2.04 2.537-6.443-.087-8.425-1.451-1.366-3.516-1.163-5.334-1.23-.006 3.672-.04 7.336.014 11.015zm-38.497-14.43c-.193.852-.706 1.365-1.552 1.534-.912-.513-1.678-1.278-2.67-1.622-1.418.074-2.344 2.4-3.782 1.19-1.339-1.461.632-3.13 1.924-3.713 2.264-1.034 5.28.17 6.08 2.61zm15.689-.602c.666.905-.38 2.048-1.305 2.136-.906-.52-1.678-1.278-2.664-1.63-1.165.136-1.891 1.144-2.743 1.847-.7-.589-2.005-1.237-1.339-2.367 1.565-3.104 6.52-3.118 8.051.014zm15.922-.027c.733.865-.326 2.001-1.205 2.17-.906-.527-1.738-1.163-2.657-1.637-1.192.062-1.911 1.123-2.764 1.813-.879-.535-1.978-1.136-1.412-2.373 1.625-3.024 6.48-3.084 8.038.027z"/><path fill="url(#c)" d="M64.716 12.469c-.153 1.285-1.185 2.272-1.272 3.584.92 1.947 2.87 3.61 2.471 5.991-.187 1.845-1.638 5.092-3.902 3.536-.38-1.535.859-2.778 1.145-4.205-.533-1.481-1.691-2.604-2.277-4.044-.713-2.009.06-4.477 1.758-5.706.805-.488 1.671.106 2.077.844zm-30.692 1.812c-1.338 1.549.173 3.111 1.026 4.422 1.611 2.273.825 5.714-1.339 7.33-1.085.237-2.31-.669-1.711-1.819.732-1.453 1.551-3.286.173-4.631-2.018-2.124-2.178-5.822.173-7.75 1.638-1.392 3.103 1.122 1.678 2.448zm14.937-2.704l.879 1.487c-.566 1.008-1.805 2.042-1.246 3.333.593 1.123 1.439 2.083 1.985 3.24.819 2.15.066 4.747-1.605 6.261-1.012.447-1.711-.398-2.39-.986.572-1.306 1.85-2.651 1.311-4.174-1.045-1.838-2.883-3.685-2.184-6.01.38-1.501 1.365-3.76 3.25-3.151zM28.557 35.818c.288-.117.58-.218.873-.305 1.468-.512.74-.258 0 0 3.812-1.123 8.016.241 10.854 3.01 2.364-2.192 5.48-3.691 8.75-3.36 2.744.094 5.167 1.575 7.192 3.36 2.537-2.367 5.98-3.874 9.463-3.286 4.847.575 8.683 4.821 9.396 9.642 2.87-.134 6.026.393 7.997 2.739 3.25 3.34 2.77 9.406-.925 12.212-1.951 1.684-4.602 1.873-7.04 1.852-.672 3.39-2.503 6.648-5.573 8.318-4.242 2.536-9.869 1.495-13.318-1.947-2.19 1.967-4.948 3.482-7.958 3.34-3.016.15-5.78-1.373-7.99-3.333-2.525 2.326-5.908 3.807-9.357 3.253-4.934-.453-8.737-4.809-9.523-9.63-2.75.095-5.74-.331-7.724-2.461-3.256-3.138-3.223-8.96.14-12.003 1.97-2.056 4.9-2.42 7.584-2.325.713-3.997 3.283-7.723 7.16-9.076zm-4.235 9.887c-.12 4.968-.107 9.954-.014 14.93.014 4.517 4.262 8.371 8.684 7.865 2.89-.15 5.187-2.225 6.74-4.544 1.55.21 2.323 1.67 3.395 2.636 3.044 2.84 8.364 2.516 10.988-.75.779-.71 1.358-2.15 2.637-1.664 1.625 1.677 3.183 3.712 5.62 4.152 4.688 1.278 9.843-2.711 9.796-7.648.027-5.004.06-10.009-.013-15.012-.047-5.111-5.734-9.04-10.449-7.228-2.33.575-3.529 2.84-5.354 4.178-2.197-1.156-3.39-3.955-6.086-4.327-4.049-1.312-7.538 1.59-9.922 4.558-1.925-1.624-3.41-4.036-6.027-4.551-4.681-1.446-9.862 2.489-9.995 7.405-.133 4.915 0 0 0 0zm-8.104 3.24c-2.57 1.864-2.857 6.078-.506 8.255 1.491 1.588 3.769 1.588 5.78 1.575-.107-3.658-.034-7.31-.06-10.961-1.772.081-3.776-.149-5.214 1.13-1.439 1.277 0 0 0 0zm58.867 9.878c1.858-.061 3.935.007 5.407-1.36 2.577-2.04 2.537-6.443-.087-8.425-1.451-1.366-3.516-1.163-5.334-1.23-.006 3.672-.04 7.336.014 11.015zm-38.497-14.43c-.193.852-.706 1.365-1.552 1.534-.912-.513-1.678-1.278-2.67-1.622-1.418.074-2.344 2.4-3.782 1.19-1.339-1.461.632-3.13 1.924-3.713 2.264-1.034 5.28.17 6.08 2.61zm15.689-.602c.666.905-.38 2.048-1.305 2.136-.906-.52-1.678-1.278-2.664-1.63-1.165.136-1.891 1.144-2.743 1.847-.7-.589-2.005-1.237-1.339-2.367 1.565-3.104 6.52-3.118 8.051.014zm15.922-.027c.733.865-.326 2.001-1.205 2.17-.906-.527-1.738-1.163-2.657-1.637-1.192.062-1.911 1.123-2.764 1.813-.879-.535-1.978-1.136-1.412-2.373 1.625-3.024 6.48-3.084 8.038.027z"/></svg>