<svg xmlns="http://www.w3.org/2000/svg" width="82" height="83"><defs><linearGradient id="c" x1="40.87" x2="40.87" y1="71.81" y2="11.81" gradientUnits="userSpaceOnUse"><stop offset="0" stop-color="#17a56a"/><stop offset="1" stop-color="#75d007"/></linearGradient><filter id="a" width="111.2" height="111.2" x="-15.1" y="-14.1" filterUnits="userSpaceOnUse"><feOffset in="SourceGraphic" result="FeOffset1494Out"/><feGaussianBlur in="FeOffset1494Out" result="FeGaussianBlur1495Out" stdDeviation="5.12 5.12"/></filter><mask id="b" width="2.08" height="2.08" x="-1.04" y="-1.04"><path fill="#fff" d="M7.7 8.7h65.6v65.6H7.7z"/><path d="M21.716 18.96c-.276-4.128 3.83-7.753 7.895-7.071 20.256 3.873 37.298 20.836 41.154 41.1.682 3.679-2.138 7.415-5.81 7.933-2.367.51-4.577-.715-6.406-2.065-15.141 4.24-30.27 8.527-45.423 12.722-1.437.825-2.833-.76-2.02-2.13 4.197-15.115 8.479-30.21 12.715-45.31-1.102-1.528-2.204-3.22-2.105-5.18.098-1.958 0 0 0 0zm6.124-4.254c-4.223.689-4.459 7.38-.196 8.213C42.22 26.085 54.713 37.456 58.87 51.824c.689 2.15.833 4.995 3.233 6.01 2.997 1.5 6.767-1.573 5.869-4.798-3.587-16.91-16.59-31.368-32.99-36.828-2.329-.656-4.683-1.757-7.142-1.502-2.459.256 0 0 0 0zM14.365 68.348C28.62 64.329 42.877 60.35 57.132 56.34c-2.859-15.233-15.58-27.915-30.813-30.792-3.94 14.276-8.066 28.504-11.954 42.8zM29.486 35.53c-2.15-.105-2.236-4.037-.269-4.306 2.164-.125 2.138 3.893.27 4.306zm2.27 2.078a4.52 4.52 0 01.79-.338c3.417-1.088 7.404 2.172 6.626 5.844-.42 3.787-5.436 5.787-8.348 3.31-3.03-2.164-2.505-7.348.931-8.816zm1.166 6.803c1.384.88 3.41-.263 3.495-1.862.276-1.82-1.803-3.146-3.43-2.425-1.737.701-1.855 3.586-.065 4.287zm13.338-3.77c-.721 1.01-2.046 2.623-3.364 1.574-1.167-1.213.335-2.642 1.37-3.283 1.09-.55 2.368.465 1.994 1.71zm-1.554 6.864c1.882.996 3.469-.886 5.233-1.2.905.485 1.174 1.207.82 2.17-2.407 2.824-7.207 2.838-9.647.046-.196-.59-.386-1.554.348-1.862 1.017-.858 2.197.584 3.246.846zm-17.757-.531l.937 1.376c-.406.655-.78 1.337-1.114 2.032.013 1.291 1.43 2.49.603 3.75-1.62 1.356-3.108-.978-3.344-2.42-.433-1.867.544-5.105 2.918-4.738zm15.803 5.748c1.22.937 2.459 2.084 2.085 3.782-1.98.78-3.75-.97-3.856-2.897.446-.223 1.332-.662 1.77-.885zm-6.8 1.645c.59 2.812-2.308 5.708-5.089 5.178-1.337-.197-1.455-2.392-.006-2.47 1.678-.316 2.347-1.738 2.905-3.18.347-.996 2.059-.446 2.19.472z"/></mask></defs><g filter="url(#a)"><path fill="none" stroke="red" stroke-opacity=".2" stroke-width="4.6" d="M21.716 18.96c-.276-4.128 3.83-7.753 7.895-7.071 20.256 3.873 37.298 20.836 41.154 41.1.682 3.679-2.138 7.415-5.81 7.933-2.367.51-4.577-.715-6.406-2.065-15.141 4.24-30.27 8.527-45.423 12.722-1.437.825-2.833-.76-2.02-2.13 4.197-15.115 8.479-30.21 12.715-45.31-1.102-1.528-2.204-3.22-2.105-5.18.098-1.958 0 0 0 0zm6.124-4.254c-4.223.689-4.459 7.38-.196 8.213C42.22 26.085 54.713 37.456 58.87 51.824c.689 2.15.833 4.995 3.233 6.01 2.997 1.5 6.767-1.573 5.869-4.798-3.587-16.91-16.59-31.368-32.99-36.828-2.329-.656-4.683-1.757-7.142-1.502-2.459.256 0 0 0 0zM14.365 68.348C28.62 64.329 42.877 60.35 57.132 56.34c-2.859-15.233-15.58-27.915-30.813-30.792-3.94 14.276-8.066 28.504-11.954 42.8zM29.486 35.53c-2.15-.105-2.236-4.037-.269-4.306 2.164-.125 2.138 3.893.27 4.306zm2.27 2.078a4.52 4.52 0 01.79-.338c3.417-1.088 7.404 2.172 6.626 5.844-.42 3.787-5.436 5.787-8.348 3.31-3.03-2.164-2.505-7.348.931-8.816zm1.166 6.803c1.384.88 3.41-.263 3.495-1.862.276-1.82-1.803-3.146-3.43-2.425-1.737.701-1.855 3.586-.065 4.287zm13.338-3.77c-.721 1.01-2.046 2.623-3.364 1.574-1.167-1.213.335-2.642 1.37-3.283 1.09-.55 2.368.465 1.994 1.71zm-1.554 6.864c1.882.996 3.469-.886 5.233-1.2.905.485 1.174 1.207.82 2.17-2.407 2.824-7.207 2.838-9.647.046-.196-.59-.386-1.554.348-1.862 1.017-.858 2.197.584 3.246.846zm-17.757-.531l.937 1.376c-.406.655-.78 1.337-1.114 2.032.013 1.291 1.43 2.49.603 3.75-1.62 1.356-3.108-.978-3.344-2.42-.433-1.867.544-5.105 2.918-4.738zm15.803 5.748c1.22.937 2.459 2.084 2.085 3.782-1.98.78-3.75-.97-3.856-2.897.446-.223 1.332-.662 1.77-.885zm-6.8 1.645c.59 2.812-2.308 5.708-5.089 5.178-1.337-.197-1.455-2.392-.006-2.47 1.678-.316 2.347-1.738 2.905-3.18.347-.996 2.059-.446 2.19.472z" mask="url(&quot;#b&quot;)"/><path fill="red" fill-opacity=".2" d="M21.716 18.96c-.276-4.128 3.83-7.753 7.895-7.071 20.256 3.873 37.298 20.836 41.154 41.1.682 3.679-2.138 7.415-5.81 7.933-2.367.51-4.577-.715-6.406-2.065-15.141 4.24-30.27 8.527-45.423 12.722-1.437.825-2.833-.76-2.02-2.13 4.197-15.115 8.479-30.21 12.715-45.31-1.102-1.528-2.204-3.22-2.105-5.18.098-1.958 0 0 0 0zm6.124-4.254c-4.223.689-4.459 7.38-.196 8.213C42.22 26.085 54.713 37.456 58.87 51.824c.689 2.15.833 4.995 3.233 6.01 2.997 1.5 6.767-1.573 5.869-4.798-3.587-16.91-16.59-31.368-32.99-36.828-2.329-.656-4.683-1.757-7.142-1.502-2.459.256 0 0 0 0zM14.365 68.348C28.62 64.329 42.877 60.35 57.132 56.34c-2.859-15.233-15.58-27.915-30.813-30.792-3.94 14.276-8.066 28.504-11.954 42.8zM29.486 35.53c-2.15-.105-2.236-4.037-.269-4.306 2.164-.125 2.138 3.893.27 4.306zm2.27 2.078a4.52 4.52 0 01.79-.338c3.417-1.088 7.404 2.172 6.626 5.844-.42 3.787-5.436 5.787-8.348 3.31-3.03-2.164-2.505-7.348.931-8.816zm1.166 6.803c1.384.88 3.41-.263 3.495-1.862.276-1.82-1.803-3.146-3.43-2.425-1.737.701-1.855 3.586-.065 4.287zm13.338-3.77c-.721 1.01-2.046 2.623-3.364 1.574-1.167-1.213.335-2.642 1.37-3.283 1.09-.55 2.368.465 1.994 1.71zm-1.554 6.864c1.882.996 3.469-.886 5.233-1.2.905.485 1.174 1.207.82 2.17-2.407 2.824-7.207 2.838-9.647.046-.196-.59-.386-1.554.348-1.862 1.017-.858 2.197.584 3.246.846zm-17.757-.531l.937 1.376c-.406.655-.78 1.337-1.114 2.032.013 1.291 1.43 2.49.603 3.75-1.62 1.356-3.108-.978-3.344-2.42-.433-1.867.544-5.105 2.918-4.738zm15.803 5.748c1.22.937 2.459 2.084 2.085 3.782-1.98.78-3.75-.97-3.856-2.897.446-.223 1.332-.662 1.77-.885zm-6.8 1.645c.59 2.812-2.308 5.708-5.089 5.178-1.337-.197-1.455-2.392-.006-2.47 1.678-.316 2.347-1.738 2.905-3.18.347-.996 2.059-.446 2.19.472z"/></g><g filter="url(#a)"><path fill="none" stroke="red" stroke-opacity=".2" stroke-width="4.6" d="M21.716 18.96c-.276-4.128 3.83-7.753 7.895-7.071 20.256 3.873 37.298 20.836 41.154 41.1.682 3.679-2.138 7.415-5.81 7.933-2.367.51-4.577-.715-6.406-2.065-15.141 4.24-30.27 8.527-45.423 12.722-1.437.825-2.833-.76-2.02-2.13 4.197-15.115 8.479-30.21 12.715-45.31-1.102-1.528-2.204-3.22-2.105-5.18.098-1.958 0 0 0 0zm6.124-4.254c-4.223.689-4.459 7.38-.196 8.213C42.22 26.085 54.713 37.456 58.87 51.824c.689 2.15.833 4.995 3.233 6.01 2.997 1.5 6.767-1.573 5.869-4.798-3.587-16.91-16.59-31.368-32.99-36.828-2.329-.656-4.683-1.757-7.142-1.502-2.459.256 0 0 0 0zM14.365 68.348C28.62 64.329 42.877 60.35 57.132 56.34c-2.859-15.233-15.58-27.915-30.813-30.792-3.94 14.276-8.066 28.504-11.954 42.8zM29.486 35.53c-2.15-.105-2.236-4.037-.269-4.306 2.164-.125 2.138 3.893.27 4.306zm2.27 2.078a4.52 4.52 0 01.79-.338c3.417-1.088 7.404 2.172 6.626 5.844-.42 3.787-5.436 5.787-8.348 3.31-3.03-2.164-2.505-7.348.931-8.816zm1.166 6.803c1.384.88 3.41-.263 3.495-1.862.276-1.82-1.803-3.146-3.43-2.425-1.737.701-1.855 3.586-.065 4.287zm13.338-3.77c-.721 1.01-2.046 2.623-3.364 1.574-1.167-1.213.335-2.642 1.37-3.283 1.09-.55 2.368.465 1.994 1.71zm-1.554 6.864c1.882.996 3.469-.886 5.233-1.2.905.485 1.174 1.207.82 2.17-2.407 2.824-7.207 2.838-9.647.046-.196-.59-.386-1.554.348-1.862 1.017-.858 2.197.584 3.246.846zm-17.757-.531l.937 1.376c-.406.655-.78 1.337-1.114 2.032.013 1.291 1.43 2.49.603 3.75-1.62 1.356-3.108-.978-3.344-2.42-.433-1.867.544-5.105 2.918-4.738zm15.803 5.748c1.22.937 2.459 2.084 2.085 3.782-1.98.78-3.75-.97-3.856-2.897.446-.223 1.332-.662 1.77-.885zm-6.8 1.645c.59 2.812-2.308 5.708-5.089 5.178-1.337-.197-1.455-2.392-.006-2.47 1.678-.316 2.347-1.738 2.905-3.18.347-.996 2.059-.446 2.19.472z" mask="url(&quot;#b&quot;)"/><path fill="red" fill-opacity=".2" d="M21.716 18.96c-.276-4.128 3.83-7.753 7.895-7.071 20.256 3.873 37.298 20.836 41.154 41.1.682 3.679-2.138 7.415-5.81 7.933-2.367.51-4.577-.715-6.406-2.065-15.141 4.24-30.27 8.527-45.423 12.722-1.437.825-2.833-.76-2.02-2.13 4.197-15.115 8.479-30.21 12.715-45.31-1.102-1.528-2.204-3.22-2.105-5.18.098-1.958 0 0 0 0zm6.124-4.254c-4.223.689-4.459 7.38-.196 8.213C42.22 26.085 54.713 37.456 58.87 51.824c.689 2.15.833 4.995 3.233 6.01 2.997 1.5 6.767-1.573 5.869-4.798-3.587-16.91-16.59-31.368-32.99-36.828-2.329-.656-4.683-1.757-7.142-1.502-2.459.256 0 0 0 0zM14.365 68.348C28.62 64.329 42.877 60.35 57.132 56.34c-2.859-15.233-15.58-27.915-30.813-30.792-3.94 14.276-8.066 28.504-11.954 42.8zM29.486 35.53c-2.15-.105-2.236-4.037-.269-4.306 2.164-.125 2.138 3.893.27 4.306zm2.27 2.078a4.52 4.52 0 01.79-.338c3.417-1.088 7.404 2.172 6.626 5.844-.42 3.787-5.436 5.787-8.348 3.31-3.03-2.164-2.505-7.348.931-8.816zm1.166 6.803c1.384.88 3.41-.263 3.495-1.862.276-1.82-1.803-3.146-3.43-2.425-1.737.701-1.855 3.586-.065 4.287zm13.338-3.77c-.721 1.01-2.046 2.623-3.364 1.574-1.167-1.213.335-2.642 1.37-3.283 1.09-.55 2.368.465 1.994 1.71zm-1.554 6.864c1.882.996 3.469-.886 5.233-1.2.905.485 1.174 1.207.82 2.17-2.407 2.824-7.207 2.838-9.647.046-.196-.59-.386-1.554.348-1.862 1.017-.858 2.197.584 3.246.846zm-17.757-.531l.937 1.376c-.406.655-.78 1.337-1.114 2.032.013 1.291 1.43 2.49.603 3.75-1.62 1.356-3.108-.978-3.344-2.42-.433-1.867.544-5.105 2.918-4.738zm15.803 5.748c1.22.937 2.459 2.084 2.085 3.782-1.98.78-3.75-.97-3.856-2.897.446-.223 1.332-.662 1.77-.885zm-6.8 1.645c.59 2.812-2.308 5.708-5.089 5.178-1.337-.197-1.455-2.392-.006-2.47 1.678-.316 2.347-1.738 2.905-3.18.347-.996 2.059-.446 2.19.472z"/></g><path fill="red" d="M21.716 18.96c-.276-4.128 3.83-7.753 7.895-7.071 20.256 3.873 37.298 20.836 41.154 41.1.682 3.679-2.138 7.415-5.81 7.933-2.367.51-4.577-.715-6.406-2.065-15.141 4.24-30.27 8.527-45.423 12.722-1.437.825-2.833-.76-2.02-2.13 4.197-15.115 8.479-30.21 12.715-45.31-1.102-1.528-2.204-3.22-2.105-5.18.098-1.958 0 0 0 0zm6.124-4.254c-4.223.689-4.459 7.38-.196 8.213C42.22 26.085 54.713 37.456 58.87 51.824c.689 2.15.833 4.995 3.233 6.01 2.997 1.5 6.767-1.573 5.869-4.798-3.587-16.91-16.59-31.368-32.99-36.828-2.329-.656-4.683-1.757-7.142-1.502-2.459.256 0 0 0 0zM14.365 68.348C28.62 64.329 42.877 60.35 57.132 56.34c-2.859-15.233-15.58-27.915-30.813-30.792-3.94 14.276-8.066 28.504-11.954 42.8zM29.486 35.53c-2.15-.105-2.236-4.037-.269-4.306 2.164-.125 2.138 3.893.27 4.306zm2.27 2.078a4.52 4.52 0 01.79-.338c3.417-1.088 7.404 2.172 6.626 5.844-.42 3.787-5.436 5.787-8.348 3.31-3.03-2.164-2.505-7.348.931-8.816zm1.166 6.803c1.384.88 3.41-.263 3.495-1.862.276-1.82-1.803-3.146-3.43-2.425-1.737.701-1.855 3.586-.065 4.287zm13.338-3.77c-.721 1.01-2.046 2.623-3.364 1.574-1.167-1.213.335-2.642 1.37-3.283 1.09-.55 2.368.465 1.994 1.71zm-1.554 6.864c1.882.996 3.469-.886 5.233-1.2.905.485 1.174 1.207.82 2.17-2.407 2.824-7.207 2.838-9.647.046-.196-.59-.386-1.554.348-1.862 1.017-.858 2.197.584 3.246.846zm-17.757-.531l.937 1.376c-.406.655-.78 1.337-1.114 2.032.013 1.291 1.43 2.49.603 3.75-1.62 1.356-3.108-.978-3.344-2.42-.433-1.867.544-5.105 2.918-4.738zm15.803 5.748c1.22.937 2.459 2.084 2.085 3.782-1.98.78-3.75-.97-3.856-2.897.446-.223 1.332-.662 1.77-.885zm-6.8 1.645c.59 2.812-2.308 5.708-5.089 5.178-1.337-.197-1.455-2.392-.006-2.47 1.678-.316 2.347-1.738 2.905-3.18.347-.996 2.059-.446 2.19.472z"/><path fill="url(#c)" d="M21.716 18.96c-.276-4.128 3.83-7.753 7.895-7.071 20.256 3.873 37.298 20.836 41.154 41.1.682 3.679-2.138 7.415-5.81 7.933-2.367.51-4.577-.715-6.406-2.065-15.141 4.24-30.27 8.527-45.423 12.722-1.437.825-2.833-.76-2.02-2.13 4.197-15.115 8.479-30.21 12.715-45.31-1.102-1.528-2.204-3.22-2.105-5.18.098-1.958 0 0 0 0zm6.124-4.254c-4.223.689-4.459 7.38-.196 8.213C42.22 26.085 54.713 37.456 58.87 51.824c.689 2.15.833 4.995 3.233 6.01 2.997 1.5 6.767-1.573 5.869-4.798-3.587-16.91-16.59-31.368-32.99-36.828-2.329-.656-4.683-1.757-7.142-1.502-2.459.256 0 0 0 0zM14.365 68.348C28.62 64.329 42.877 60.35 57.132 56.34c-2.859-15.233-15.58-27.915-30.813-30.792-3.94 14.276-8.066 28.504-11.954 42.8zM29.486 35.53c-2.15-.105-2.236-4.037-.269-4.306 2.164-.125 2.138 3.893.27 4.306zm2.27 2.078a4.52 4.52 0 01.79-.338c3.417-1.088 7.404 2.172 6.626 5.844-.42 3.787-5.436 5.787-8.348 3.31-3.03-2.164-2.505-7.348.931-8.816zm1.166 6.803c1.384.88 3.41-.263 3.495-1.862.276-1.82-1.803-3.146-3.43-2.425-1.737.701-1.855 3.586-.065 4.287zm13.338-3.77c-.721 1.01-2.046 2.623-3.364 1.574-1.167-1.213.335-2.642 1.37-3.283 1.09-.55 2.368.465 1.994 1.71zm-1.554 6.864c1.882.996 3.469-.886 5.233-1.2.905.485 1.174 1.207.82 2.17-2.407 2.824-7.207 2.838-9.647.046-.196-.59-.386-1.554.348-1.862 1.017-.858 2.197.584 3.246.846zm-17.757-.531l.937 1.376c-.406.655-.78 1.337-1.114 2.032.013 1.291 1.43 2.49.603 3.75-1.62 1.356-3.108-.978-3.344-2.42-.433-1.867.544-5.105 2.918-4.738zm15.803 5.748c1.22.937 2.459 2.084 2.085 3.782-1.98.78-3.75-.97-3.856-2.897.446-.223 1.332-.662 1.77-.885zm-6.8 1.645c.59 2.812-2.308 5.708-5.089 5.178-1.337-.197-1.455-2.392-.006-2.47 1.678-.316 2.347-1.738 2.905-3.18.347-.996 2.059-.446 2.19.472z"/></svg>