<svg xmlns="http://www.w3.org/2000/svg" width="82" height="84"><defs><linearGradient id="c" x1="41" x2="41" y1="71.65" y2="11.65" gradientUnits="userSpaceOnUse"><stop offset="0" stop-color="#17a56a"/><stop offset="1" stop-color="#75d007"/></linearGradient><filter id="a" width="110.2" height="111.2" x="-14.1" y="-14.1" filterUnits="userSpaceOnUse"><feOffset in="SourceGraphic" result="FeOffset1536Out"/><feGaussianBlur in="FeOffset1536Out" result="FeGaussianBlur1537Out" stdDeviation="5.12 5.12"/></filter><mask id="b" width="2.08" height="2.08" x="-1.04" y="-1.04"><path fill="#fff" d="M8.7 8.7h64.6v65.6H8.7z"/><path d="M38.106 13.664c.731-2.145 3.254-2.04 5.098-2.003 1.856.078 4.36-.387 5.42 1.601.829 2.268.318 4.788.44 7.166 1.21 0 2.426.006 3.649.02.834-2.424 1.216-5.002 2.27-7.34 1.023-1.84 3.364-1.479 5.04-.935 1.973.662 4.89.83 5.375 3.344.11 2.63-1.423 4.982-1.623 7.568 2.154.951 5.615.744 6.313 3.556.097 2.54-1.125 4.931-1.701 7.366 1.23.124 3.208.518 2.439 2.25-3.274 11.771-6.43 23.588-9.956 35.289-12.789.194-25.59.07-38.386.064-1.74.28-1.766-1.716-2.18-2.87-3.02-11.358-6.54-22.584-9.309-34a13.374 13.374 0 013.435-.648c-.647-2.508-1.669-4.95-1.902-7.542.57-3.537 5.085-3.122 7.66-4.269.032-2.086-.298-4.231.194-6.278.944-2.45 3.94-1.957 6.029-2.009 1.798-.103 4.127.137 4.748 2.183.407 3.473.064 6.985.18 10.483.531-1.38.77-3.193 2.304-3.822 1.358-.7 2.846.064 4.23.324.13-3.162-.297-6.375.233-9.498.53-3.123 0 0 0 0zm2.581.784c-.174 3.123-.148 6.258.013 9.388 1.294.88 2.588 2.3 1.98 4.003-1.01 4.043-2.71 8.047-2.025 12.317 1.365-.078 2.73-.162 4.101-.272.02-5.32-.039-10.645.02-15.964-.15-1.295.705-2.281 1.487-3.182.072-2.092.059-4.184.013-6.276a195.31 195.31 0 00-5.589-.014c-1.856.019 0 0 0 0zm16.774-.13c-.821 2.333-1.475 4.716-2.063 7.115 1.19 4.288.116 8.816.66 13.196 2.218-2.98 1.914-7.074 3.738-10.269 1.76-2.507 2.148-5.643 2.853-8.552a99.947 99.947 0 01-5.188-1.49c-1.714-.544 0 0 0 0zM22.95 16.78c.058 2.709-.414 5.507.446 8.131.951 3.02 1.734 6.097 2.64 9.135.847.227 1.694.46 2.555.707-.11-5.947-.033-11.902-.046-17.856a67.093 67.093 0 00-5.595-.117c-1.863.032 0 0 0 0zm24.627 6.401a1290.4 1290.4 0 00-.007 15.984c2.031-.907 3.94-2.067 5.628-3.525-.026-4.153.013-8.306-.032-12.459a400.62 400.62 0 00-5.59 0c-1.856.014 0 0 0 0zM17.296 34.175c1.954.02 3.907.026 5.874.013-.828-3.05-1.708-6.083-2.568-9.115-1.773.492-3.539.985-5.305 1.47.511 2.579 1.307 5.093 1.999 7.632zm17.446-8.94c-1.216 4.089-2.36 8.202-3.493 12.316 1.682.875 3.435 1.64 5.292 2.067 1.112-4.328 2.562-8.565 3.493-12.938-1.766-.486-3.532-.978-5.292-1.445-1.76-.466 0 0 0 0zm27.267.356c-.744 2.884-1.592 5.733-2.387 8.597 1.953.013 3.913.013 5.873 0 .667-2.37 1.346-4.735 1.967-7.12a77.52 77.52 0 00-5.453-1.477c-1.831-.42 0 0 0 0zm-43.62 25.954c3.176-.018 6.353.026 9.529-.018.42.9.977 2.189-.278 2.681-2.814.246-5.648.026-8.462.11.53 1.95 1.068 3.907 1.624 5.858 6.385.006 12.77.02 19.154-.012.951.044 2.057-.124 2.84.582.472 1.115-.168 2.39-1.5 2.222-6.566.065-13.139.006-19.705.02.557 1.943 1.094 3.9 1.605 5.863 11.89.045 23.78.007 35.675.02.544-1.964 1.094-3.92 1.643-5.883-2.995-.065-5.99.148-8.972-.079-1.197-.168-.931-1.464-1.087-2.325 3.565-.81 7.252-.22 10.874-.428a200.483 200.483 0 011.624-5.844c-7.885-.006-15.77-.026-23.65.013-.95-.039-1.928.052-2.827-.259-.886-.751-.246-1.692.071-2.54 9.05.039 18.107-.005 27.156.026a3072.27 3072.27 0 004.07-14.551c-4.037 0-8.08-.019-12.11.007-7.523 7.948-21.723 7.923-29.252 0-4.037-.026-8.067-.014-12.097-.007 1.371 4.845 2.704 9.698 4.075 14.544z"/></mask></defs><g filter="url(#a)"><path fill="none" stroke="red" stroke-opacity=".2" stroke-width="4.6" d="M38.106 13.664c.731-2.145 3.254-2.04 5.098-2.003 1.856.078 4.36-.387 5.42 1.601.829 2.268.318 4.788.44 7.166 1.21 0 2.426.006 3.649.02.834-2.424 1.216-5.002 2.27-7.34 1.023-1.84 3.364-1.479 5.04-.935 1.973.662 4.89.83 5.375 3.344.11 2.63-1.423 4.982-1.623 7.568 2.154.951 5.615.744 6.313 3.556.097 2.54-1.125 4.931-1.701 7.366 1.23.124 3.208.518 2.439 2.25-3.274 11.771-6.43 23.588-9.956 35.289-12.789.194-25.59.07-38.386.064-1.74.28-1.766-1.716-2.18-2.87-3.02-11.358-6.54-22.584-9.309-34a13.374 13.374 0 013.435-.648c-.647-2.508-1.669-4.95-1.902-7.542.57-3.537 5.085-3.122 7.66-4.269.032-2.086-.298-4.231.194-6.278.944-2.45 3.94-1.957 6.029-2.009 1.798-.103 4.127.137 4.748 2.183.407 3.473.064 6.985.18 10.483.531-1.38.77-3.193 2.304-3.822 1.358-.7 2.846.064 4.23.324.13-3.162-.297-6.375.233-9.498.53-3.123 0 0 0 0zm2.581.784c-.174 3.123-.148 6.258.013 9.388 1.294.88 2.588 2.3 1.98 4.003-1.01 4.043-2.71 8.047-2.025 12.317 1.365-.078 2.73-.162 4.101-.272.02-5.32-.039-10.645.02-15.964-.15-1.295.705-2.281 1.487-3.182.072-2.092.059-4.184.013-6.276a195.31 195.31 0 00-5.589-.014c-1.856.019 0 0 0 0zm16.774-.13c-.821 2.333-1.475 4.716-2.063 7.115 1.19 4.288.116 8.816.66 13.196 2.218-2.98 1.914-7.074 3.738-10.269 1.76-2.507 2.148-5.643 2.853-8.552a99.947 99.947 0 01-5.188-1.49c-1.714-.544 0 0 0 0zM22.95 16.78c.058 2.709-.414 5.507.446 8.131.951 3.02 1.734 6.097 2.64 9.135.847.227 1.694.46 2.555.707-.11-5.947-.033-11.902-.046-17.856a67.093 67.093 0 00-5.595-.117c-1.863.032 0 0 0 0zm24.627 6.401a1290.4 1290.4 0 00-.007 15.984c2.031-.907 3.94-2.067 5.628-3.525-.026-4.153.013-8.306-.032-12.459a400.62 400.62 0 00-5.59 0c-1.856.014 0 0 0 0zM17.296 34.175c1.954.02 3.907.026 5.874.013-.828-3.05-1.708-6.083-2.568-9.115-1.773.492-3.539.985-5.305 1.47.511 2.579 1.307 5.093 1.999 7.632zm17.446-8.94c-1.216 4.089-2.36 8.202-3.493 12.316 1.682.875 3.435 1.64 5.292 2.067 1.112-4.328 2.562-8.565 3.493-12.938-1.766-.486-3.532-.978-5.292-1.445-1.76-.466 0 0 0 0zm27.267.356c-.744 2.884-1.592 5.733-2.387 8.597 1.953.013 3.913.013 5.873 0 .667-2.37 1.346-4.735 1.967-7.12a77.52 77.52 0 00-5.453-1.477c-1.831-.42 0 0 0 0zm-43.62 25.954c3.176-.018 6.353.026 9.529-.018.42.9.977 2.189-.278 2.681-2.814.246-5.648.026-8.462.11.53 1.95 1.068 3.907 1.624 5.858 6.385.006 12.77.02 19.154-.012.951.044 2.057-.124 2.84.582.472 1.115-.168 2.39-1.5 2.222-6.566.065-13.139.006-19.705.02.557 1.943 1.094 3.9 1.605 5.863 11.89.045 23.78.007 35.675.02.544-1.964 1.094-3.92 1.643-5.883-2.995-.065-5.99.148-8.972-.079-1.197-.168-.931-1.464-1.087-2.325 3.565-.81 7.252-.22 10.874-.428a200.483 200.483 0 011.624-5.844c-7.885-.006-15.77-.026-23.65.013-.95-.039-1.928.052-2.827-.259-.886-.751-.246-1.692.071-2.54 9.05.039 18.107-.005 27.156.026a3072.27 3072.27 0 004.07-14.551c-4.037 0-8.08-.019-12.11.007-7.523 7.948-21.723 7.923-29.252 0-4.037-.026-8.067-.014-12.097-.007 1.371 4.845 2.704 9.698 4.075 14.544z" mask="url(&quot;#b&quot;)"/><path fill="red" fill-opacity=".2" d="M38.106 13.664c.731-2.145 3.254-2.04 5.098-2.003 1.856.078 4.36-.387 5.42 1.601.829 2.268.318 4.788.44 7.166 1.21 0 2.426.006 3.649.02.834-2.424 1.216-5.002 2.27-7.34 1.023-1.84 3.364-1.479 5.04-.935 1.973.662 4.89.83 5.375 3.344.11 2.63-1.423 4.982-1.623 7.568 2.154.951 5.615.744 6.313 3.556.097 2.54-1.125 4.931-1.701 7.366 1.23.124 3.208.518 2.439 2.25-3.274 11.771-6.43 23.588-9.956 35.289-12.789.194-25.59.07-38.386.064-1.74.28-1.766-1.716-2.18-2.87-3.02-11.358-6.54-22.584-9.309-34a13.374 13.374 0 013.435-.648c-.647-2.508-1.669-4.95-1.902-7.542.57-3.537 5.085-3.122 7.66-4.269.032-2.086-.298-4.231.194-6.278.944-2.45 3.94-1.957 6.029-2.009 1.798-.103 4.127.137 4.748 2.183.407 3.473.064 6.985.18 10.483.531-1.38.77-3.193 2.304-3.822 1.358-.7 2.846.064 4.23.324.13-3.162-.297-6.375.233-9.498.53-3.123 0 0 0 0zm2.581.784c-.174 3.123-.148 6.258.013 9.388 1.294.88 2.588 2.3 1.98 4.003-1.01 4.043-2.71 8.047-2.025 12.317 1.365-.078 2.73-.162 4.101-.272.02-5.32-.039-10.645.02-15.964-.15-1.295.705-2.281 1.487-3.182.072-2.092.059-4.184.013-6.276a195.31 195.31 0 00-5.589-.014c-1.856.019 0 0 0 0zm16.774-.13c-.821 2.333-1.475 4.716-2.063 7.115 1.19 4.288.116 8.816.66 13.196 2.218-2.98 1.914-7.074 3.738-10.269 1.76-2.507 2.148-5.643 2.853-8.552a99.947 99.947 0 01-5.188-1.49c-1.714-.544 0 0 0 0zM22.95 16.78c.058 2.709-.414 5.507.446 8.131.951 3.02 1.734 6.097 2.64 9.135.847.227 1.694.46 2.555.707-.11-5.947-.033-11.902-.046-17.856a67.093 67.093 0 00-5.595-.117c-1.863.032 0 0 0 0zm24.627 6.401a1290.4 1290.4 0 00-.007 15.984c2.031-.907 3.94-2.067 5.628-3.525-.026-4.153.013-8.306-.032-12.459a400.62 400.62 0 00-5.59 0c-1.856.014 0 0 0 0zM17.296 34.175c1.954.02 3.907.026 5.874.013-.828-3.05-1.708-6.083-2.568-9.115-1.773.492-3.539.985-5.305 1.47.511 2.579 1.307 5.093 1.999 7.632zm17.446-8.94c-1.216 4.089-2.36 8.202-3.493 12.316 1.682.875 3.435 1.64 5.292 2.067 1.112-4.328 2.562-8.565 3.493-12.938-1.766-.486-3.532-.978-5.292-1.445-1.76-.466 0 0 0 0zm27.267.356c-.744 2.884-1.592 5.733-2.387 8.597 1.953.013 3.913.013 5.873 0 .667-2.37 1.346-4.735 1.967-7.12a77.52 77.52 0 00-5.453-1.477c-1.831-.42 0 0 0 0zm-43.62 25.954c3.176-.018 6.353.026 9.529-.018.42.9.977 2.189-.278 2.681-2.814.246-5.648.026-8.462.11.53 1.95 1.068 3.907 1.624 5.858 6.385.006 12.77.02 19.154-.012.951.044 2.057-.124 2.84.582.472 1.115-.168 2.39-1.5 2.222-6.566.065-13.139.006-19.705.02.557 1.943 1.094 3.9 1.605 5.863 11.89.045 23.78.007 35.675.02.544-1.964 1.094-3.92 1.643-5.883-2.995-.065-5.99.148-8.972-.079-1.197-.168-.931-1.464-1.087-2.325 3.565-.81 7.252-.22 10.874-.428a200.483 200.483 0 011.624-5.844c-7.885-.006-15.77-.026-23.65.013-.95-.039-1.928.052-2.827-.259-.886-.751-.246-1.692.071-2.54 9.05.039 18.107-.005 27.156.026a3072.27 3072.27 0 004.07-14.551c-4.037 0-8.08-.019-12.11.007-7.523 7.948-21.723 7.923-29.252 0-4.037-.026-8.067-.014-12.097-.007 1.371 4.845 2.704 9.698 4.075 14.544z"/></g><g filter="url(#a)"><path fill="none" stroke="red" stroke-opacity=".2" stroke-width="4.6" d="M38.106 13.664c.731-2.145 3.254-2.04 5.098-2.003 1.856.078 4.36-.387 5.42 1.601.829 2.268.318 4.788.44 7.166 1.21 0 2.426.006 3.649.02.834-2.424 1.216-5.002 2.27-7.34 1.023-1.84 3.364-1.479 5.04-.935 1.973.662 4.89.83 5.375 3.344.11 2.63-1.423 4.982-1.623 7.568 2.154.951 5.615.744 6.313 3.556.097 2.54-1.125 4.931-1.701 7.366 1.23.124 3.208.518 2.439 2.25-3.274 11.771-6.43 23.588-9.956 35.289-12.789.194-25.59.07-38.386.064-1.74.28-1.766-1.716-2.18-2.87-3.02-11.358-6.54-22.584-9.309-34a13.374 13.374 0 013.435-.648c-.647-2.508-1.669-4.95-1.902-7.542.57-3.537 5.085-3.122 7.66-4.269.032-2.086-.298-4.231.194-6.278.944-2.45 3.94-1.957 6.029-2.009 1.798-.103 4.127.137 4.748 2.183.407 3.473.064 6.985.18 10.483.531-1.38.77-3.193 2.304-3.822 1.358-.7 2.846.064 4.23.324.13-3.162-.297-6.375.233-9.498.53-3.123 0 0 0 0zm2.581.784c-.174 3.123-.148 6.258.013 9.388 1.294.88 2.588 2.3 1.98 4.003-1.01 4.043-2.71 8.047-2.025 12.317 1.365-.078 2.73-.162 4.101-.272.02-5.32-.039-10.645.02-15.964-.15-1.295.705-2.281 1.487-3.182.072-2.092.059-4.184.013-6.276a195.31 195.31 0 00-5.589-.014c-1.856.019 0 0 0 0zm16.774-.13c-.821 2.333-1.475 4.716-2.063 7.115 1.19 4.288.116 8.816.66 13.196 2.218-2.98 1.914-7.074 3.738-10.269 1.76-2.507 2.148-5.643 2.853-8.552a99.947 99.947 0 01-5.188-1.49c-1.714-.544 0 0 0 0zM22.95 16.78c.058 2.709-.414 5.507.446 8.131.951 3.02 1.734 6.097 2.64 9.135.847.227 1.694.46 2.555.707-.11-5.947-.033-11.902-.046-17.856a67.093 67.093 0 00-5.595-.117c-1.863.032 0 0 0 0zm24.627 6.401a1290.4 1290.4 0 00-.007 15.984c2.031-.907 3.94-2.067 5.628-3.525-.026-4.153.013-8.306-.032-12.459a400.62 400.62 0 00-5.59 0c-1.856.014 0 0 0 0zM17.296 34.175c1.954.02 3.907.026 5.874.013-.828-3.05-1.708-6.083-2.568-9.115-1.773.492-3.539.985-5.305 1.47.511 2.579 1.307 5.093 1.999 7.632zm17.446-8.94c-1.216 4.089-2.36 8.202-3.493 12.316 1.682.875 3.435 1.64 5.292 2.067 1.112-4.328 2.562-8.565 3.493-12.938-1.766-.486-3.532-.978-5.292-1.445-1.76-.466 0 0 0 0zm27.267.356c-.744 2.884-1.592 5.733-2.387 8.597 1.953.013 3.913.013 5.873 0 .667-2.37 1.346-4.735 1.967-7.12a77.52 77.52 0 00-5.453-1.477c-1.831-.42 0 0 0 0zm-43.62 25.954c3.176-.018 6.353.026 9.529-.018.42.9.977 2.189-.278 2.681-2.814.246-5.648.026-8.462.11.53 1.95 1.068 3.907 1.624 5.858 6.385.006 12.77.02 19.154-.012.951.044 2.057-.124 2.84.582.472 1.115-.168 2.39-1.5 2.222-6.566.065-13.139.006-19.705.02.557 1.943 1.094 3.9 1.605 5.863 11.89.045 23.78.007 35.675.02.544-1.964 1.094-3.92 1.643-5.883-2.995-.065-5.99.148-8.972-.079-1.197-.168-.931-1.464-1.087-2.325 3.565-.81 7.252-.22 10.874-.428a200.483 200.483 0 011.624-5.844c-7.885-.006-15.77-.026-23.65.013-.95-.039-1.928.052-2.827-.259-.886-.751-.246-1.692.071-2.54 9.05.039 18.107-.005 27.156.026a3072.27 3072.27 0 004.07-14.551c-4.037 0-8.08-.019-12.11.007-7.523 7.948-21.723 7.923-29.252 0-4.037-.026-8.067-.014-12.097-.007 1.371 4.845 2.704 9.698 4.075 14.544z" mask="url(&quot;#b&quot;)"/><path fill="red" fill-opacity=".2" d="M38.106 13.664c.731-2.145 3.254-2.04 5.098-2.003 1.856.078 4.36-.387 5.42 1.601.829 2.268.318 4.788.44 7.166 1.21 0 2.426.006 3.649.02.834-2.424 1.216-5.002 2.27-7.34 1.023-1.84 3.364-1.479 5.04-.935 1.973.662 4.89.83 5.375 3.344.11 2.63-1.423 4.982-1.623 7.568 2.154.951 5.615.744 6.313 3.556.097 2.54-1.125 4.931-1.701 7.366 1.23.124 3.208.518 2.439 2.25-3.274 11.771-6.43 23.588-9.956 35.289-12.789.194-25.59.07-38.386.064-1.74.28-1.766-1.716-2.18-2.87-3.02-11.358-6.54-22.584-9.309-34a13.374 13.374 0 013.435-.648c-.647-2.508-1.669-4.95-1.902-7.542.57-3.537 5.085-3.122 7.66-4.269.032-2.086-.298-4.231.194-6.278.944-2.45 3.94-1.957 6.029-2.009 1.798-.103 4.127.137 4.748 2.183.407 3.473.064 6.985.18 10.483.531-1.38.77-3.193 2.304-3.822 1.358-.7 2.846.064 4.23.324.13-3.162-.297-6.375.233-9.498.53-3.123 0 0 0 0zm2.581.784c-.174 3.123-.148 6.258.013 9.388 1.294.88 2.588 2.3 1.98 4.003-1.01 4.043-2.71 8.047-2.025 12.317 1.365-.078 2.73-.162 4.101-.272.02-5.32-.039-10.645.02-15.964-.15-1.295.705-2.281 1.487-3.182.072-2.092.059-4.184.013-6.276a195.31 195.31 0 00-5.589-.014c-1.856.019 0 0 0 0zm16.774-.13c-.821 2.333-1.475 4.716-2.063 7.115 1.19 4.288.116 8.816.66 13.196 2.218-2.98 1.914-7.074 3.738-10.269 1.76-2.507 2.148-5.643 2.853-8.552a99.947 99.947 0 01-5.188-1.49c-1.714-.544 0 0 0 0zM22.95 16.78c.058 2.709-.414 5.507.446 8.131.951 3.02 1.734 6.097 2.64 9.135.847.227 1.694.46 2.555.707-.11-5.947-.033-11.902-.046-17.856a67.093 67.093 0 00-5.595-.117c-1.863.032 0 0 0 0zm24.627 6.401a1290.4 1290.4 0 00-.007 15.984c2.031-.907 3.94-2.067 5.628-3.525-.026-4.153.013-8.306-.032-12.459a400.62 400.62 0 00-5.59 0c-1.856.014 0 0 0 0zM17.296 34.175c1.954.02 3.907.026 5.874.013-.828-3.05-1.708-6.083-2.568-9.115-1.773.492-3.539.985-5.305 1.47.511 2.579 1.307 5.093 1.999 7.632zm17.446-8.94c-1.216 4.089-2.36 8.202-3.493 12.316 1.682.875 3.435 1.64 5.292 2.067 1.112-4.328 2.562-8.565 3.493-12.938-1.766-.486-3.532-.978-5.292-1.445-1.76-.466 0 0 0 0zm27.267.356c-.744 2.884-1.592 5.733-2.387 8.597 1.953.013 3.913.013 5.873 0 .667-2.37 1.346-4.735 1.967-7.12a77.52 77.52 0 00-5.453-1.477c-1.831-.42 0 0 0 0zm-43.62 25.954c3.176-.018 6.353.026 9.529-.018.42.9.977 2.189-.278 2.681-2.814.246-5.648.026-8.462.11.53 1.95 1.068 3.907 1.624 5.858 6.385.006 12.77.02 19.154-.012.951.044 2.057-.124 2.84.582.472 1.115-.168 2.39-1.5 2.222-6.566.065-13.139.006-19.705.02.557 1.943 1.094 3.9 1.605 5.863 11.89.045 23.78.007 35.675.02.544-1.964 1.094-3.92 1.643-5.883-2.995-.065-5.99.148-8.972-.079-1.197-.168-.931-1.464-1.087-2.325 3.565-.81 7.252-.22 10.874-.428a200.483 200.483 0 011.624-5.844c-7.885-.006-15.77-.026-23.65.013-.95-.039-1.928.052-2.827-.259-.886-.751-.246-1.692.071-2.54 9.05.039 18.107-.005 27.156.026a3072.27 3072.27 0 004.07-14.551c-4.037 0-8.08-.019-12.11.007-7.523 7.948-21.723 7.923-29.252 0-4.037-.026-8.067-.014-12.097-.007 1.371 4.845 2.704 9.698 4.075 14.544z"/></g><path fill="red" d="M38.106 13.664c.731-2.145 3.254-2.04 5.098-2.003 1.856.078 4.36-.387 5.42 1.601.829 2.268.318 4.788.44 7.166 1.21 0 2.426.006 3.649.02.834-2.424 1.216-5.002 2.27-7.34 1.023-1.84 3.364-1.479 5.04-.935 1.973.662 4.89.83 5.375 3.344.11 2.63-1.423 4.982-1.623 7.568 2.154.951 5.615.744 6.313 3.556.097 2.54-1.125 4.931-1.701 7.366 1.23.124 3.208.518 2.439 2.25-3.274 11.771-6.43 23.588-9.956 35.289-12.789.194-25.59.07-38.386.064-1.74.28-1.766-1.716-2.18-2.87-3.02-11.358-6.54-22.584-9.309-34a13.374 13.374 0 013.435-.648c-.647-2.508-1.669-4.95-1.902-7.542.57-3.537 5.085-3.122 7.66-4.269.032-2.086-.298-4.231.194-6.278.944-2.45 3.94-1.957 6.029-2.009 1.798-.103 4.127.137 4.748 2.183.407 3.473.064 6.985.18 10.483.531-1.38.77-3.193 2.304-3.822 1.358-.7 2.846.064 4.23.324.13-3.162-.297-6.375.233-9.498.53-3.123 0 0 0 0zm2.581.784c-.174 3.123-.148 6.258.013 9.388 1.294.88 2.588 2.3 1.98 4.003-1.01 4.043-2.71 8.047-2.025 12.317 1.365-.078 2.73-.162 4.101-.272.02-5.32-.039-10.645.02-15.964-.15-1.295.705-2.281 1.487-3.182.072-2.092.059-4.184.013-6.276a195.31 195.31 0 00-5.589-.014c-1.856.019 0 0 0 0zm16.774-.13c-.821 2.333-1.475 4.716-2.063 7.115 1.19 4.288.116 8.816.66 13.196 2.218-2.98 1.914-7.074 3.738-10.269 1.76-2.507 2.148-5.643 2.853-8.552a99.947 99.947 0 01-5.188-1.49c-1.714-.544 0 0 0 0zM22.95 16.78c.058 2.709-.414 5.507.446 8.131.951 3.02 1.734 6.097 2.64 9.135.847.227 1.694.46 2.555.707-.11-5.947-.033-11.902-.046-17.856a67.093 67.093 0 00-5.595-.117c-1.863.032 0 0 0 0zm24.627 6.401a1290.4 1290.4 0 00-.007 15.984c2.031-.907 3.94-2.067 5.628-3.525-.026-4.153.013-8.306-.032-12.459a400.62 400.62 0 00-5.59 0c-1.856.014 0 0 0 0zM17.296 34.175c1.954.02 3.907.026 5.874.013-.828-3.05-1.708-6.083-2.568-9.115-1.773.492-3.539.985-5.305 1.47.511 2.579 1.307 5.093 1.999 7.632zm17.446-8.94c-1.216 4.089-2.36 8.202-3.493 12.316 1.682.875 3.435 1.64 5.292 2.067 1.112-4.328 2.562-8.565 3.493-12.938-1.766-.486-3.532-.978-5.292-1.445-1.76-.466 0 0 0 0zm27.267.356c-.744 2.884-1.592 5.733-2.387 8.597 1.953.013 3.913.013 5.873 0 .667-2.37 1.346-4.735 1.967-7.12a77.52 77.52 0 00-5.453-1.477c-1.831-.42 0 0 0 0zm-43.62 25.954c3.176-.018 6.353.026 9.529-.018.42.9.977 2.189-.278 2.681-2.814.246-5.648.026-8.462.11.53 1.95 1.068 3.907 1.624 5.858 6.385.006 12.77.02 19.154-.012.951.044 2.057-.124 2.84.582.472 1.115-.168 2.39-1.5 2.222-6.566.065-13.139.006-19.705.02.557 1.943 1.094 3.9 1.605 5.863 11.89.045 23.78.007 35.675.02.544-1.964 1.094-3.92 1.643-5.883-2.995-.065-5.99.148-8.972-.079-1.197-.168-.931-1.464-1.087-2.325 3.565-.81 7.252-.22 10.874-.428a200.483 200.483 0 011.624-5.844c-7.885-.006-15.77-.026-23.65.013-.95-.039-1.928.052-2.827-.259-.886-.751-.246-1.692.071-2.54 9.05.039 18.107-.005 27.156.026a3072.27 3072.27 0 004.07-14.551c-4.037 0-8.08-.019-12.11.007-7.523 7.948-21.723 7.923-29.252 0-4.037-.026-8.067-.014-12.097-.007 1.371 4.845 2.704 9.698 4.075 14.544z"/><path fill="url(#c)" d="M38.106 13.664c.731-2.145 3.254-2.04 5.098-2.003 1.856.078 4.36-.387 5.42 1.601.829 2.268.318 4.788.44 7.166 1.21 0 2.426.006 3.649.02.834-2.424 1.216-5.002 2.27-7.34 1.023-1.84 3.364-1.479 5.04-.935 1.973.662 4.89.83 5.375 3.344.11 2.63-1.423 4.982-1.623 7.568 2.154.951 5.615.744 6.313 3.556.097 2.54-1.125 4.931-1.701 7.366 1.23.124 3.208.518 2.439 2.25-3.274 11.771-6.43 23.588-9.956 35.289-12.789.194-25.59.07-38.386.064-1.74.28-1.766-1.716-2.18-2.87-3.02-11.358-6.54-22.584-9.309-34a13.374 13.374 0 013.435-.648c-.647-2.508-1.669-4.95-1.902-7.542.57-3.537 5.085-3.122 7.66-4.269.032-2.086-.298-4.231.194-6.278.944-2.45 3.94-1.957 6.029-2.009 1.798-.103 4.127.137 4.748 2.183.407 3.473.064 6.985.18 10.483.531-1.38.77-3.193 2.304-3.822 1.358-.7 2.846.064 4.23.324.13-3.162-.297-6.375.233-9.498.53-3.123 0 0 0 0zm2.581.784c-.174 3.123-.148 6.258.013 9.388 1.294.88 2.588 2.3 1.98 4.003-1.01 4.043-2.71 8.047-2.025 12.317 1.365-.078 2.73-.162 4.101-.272.02-5.32-.039-10.645.02-15.964-.15-1.295.705-2.281 1.487-3.182.072-2.092.059-4.184.013-6.276a195.31 195.31 0 00-5.589-.014c-1.856.019 0 0 0 0zm16.774-.13c-.821 2.333-1.475 4.716-2.063 7.115 1.19 4.288.116 8.816.66 13.196 2.218-2.98 1.914-7.074 3.738-10.269 1.76-2.507 2.148-5.643 2.853-8.552a99.947 99.947 0 01-5.188-1.49c-1.714-.544 0 0 0 0zM22.95 16.78c.058 2.709-.414 5.507.446 8.131.951 3.02 1.734 6.097 2.64 9.135.847.227 1.694.46 2.555.707-.11-5.947-.033-11.902-.046-17.856a67.093 67.093 0 00-5.595-.117c-1.863.032 0 0 0 0zm24.627 6.401a1290.4 1290.4 0 00-.007 15.984c2.031-.907 3.94-2.067 5.628-3.525-.026-4.153.013-8.306-.032-12.459a400.62 400.62 0 00-5.59 0c-1.856.014 0 0 0 0zM17.296 34.175c1.954.02 3.907.026 5.874.013-.828-3.05-1.708-6.083-2.568-9.115-1.773.492-3.539.985-5.305 1.47.511 2.579 1.307 5.093 1.999 7.632zm17.446-8.94c-1.216 4.089-2.36 8.202-3.493 12.316 1.682.875 3.435 1.64 5.292 2.067 1.112-4.328 2.562-8.565 3.493-12.938-1.766-.486-3.532-.978-5.292-1.445-1.76-.466 0 0 0 0zm27.267.356c-.744 2.884-1.592 5.733-2.387 8.597 1.953.013 3.913.013 5.873 0 .667-2.37 1.346-4.735 1.967-7.12a77.52 77.52 0 00-5.453-1.477c-1.831-.42 0 0 0 0zm-43.62 25.954c3.176-.018 6.353.026 9.529-.018.42.9.977 2.189-.278 2.681-2.814.246-5.648.026-8.462.11.53 1.95 1.068 3.907 1.624 5.858 6.385.006 12.77.02 19.154-.012.951.044 2.057-.124 2.84.582.472 1.115-.168 2.39-1.5 2.222-6.566.065-13.139.006-19.705.02.557 1.943 1.094 3.9 1.605 5.863 11.89.045 23.78.007 35.675.02.544-1.964 1.094-3.92 1.643-5.883-2.995-.065-5.99.148-8.972-.079-1.197-.168-.931-1.464-1.087-2.325 3.565-.81 7.252-.22 10.874-.428a200.483 200.483 0 011.624-5.844c-7.885-.006-15.77-.026-23.65.013-.95-.039-1.928.052-2.827-.259-.886-.751-.246-1.692.071-2.54 9.05.039 18.107-.005 27.156.026a3072.27 3072.27 0 004.07-14.551c-4.037 0-8.08-.019-12.11.007-7.523 7.948-21.723 7.923-29.252 0-4.037-.026-8.067-.014-12.097-.007 1.371 4.845 2.704 9.698 4.075 14.544z"/></svg>