<svg xmlns="http://www.w3.org/2000/svg" width="28" height="20" viewBox="0 0 28 20"><path d="M13.504 5.593a.7.7 0 0 1-.206-.493.699.699 0 0 1 .702-.697.71.71 0 0 1 .496.204c.13.13.205.31.205.493a.703.703 0 0 1-.205.493.708.708 0 0 1-.992 0zm13.853 5.64A2.41 2.41 0 0 1 28 12.858c0 .956-.58 1.791-1.438 2.229v1.644c0 1.801-1.473 3.267-3.284 3.267H4.721c-1.81 0-3.284-1.466-3.284-3.267v-1.644C.58 14.649 0 13.814 0 12.858c0-.616.241-1.183.642-1.625A2.409 2.409 0 0 1 0 9.608c0-1.048.697-1.95 1.69-2.343a.923.923 0 0 1 .025-1.038C4.502 2.327 9.094-.001 14-.001c4.905 0 9.497 2.328 12.284 6.228a.923.923 0 0 1 .025 1.038c.994.394 1.69 1.295 1.69 2.343 0 .617-.24 1.183-.642 1.625zm-2.163.929h-9.983l-1.4 1.392h11.383c.498 0 .935-.325.935-.696 0-.37-.437-.696-.935-.696zm-12.629 0H6.28l3.143 3.123zm-7.53 1.392l-1.401-1.392h-.829c-.498 0-.935.325-.935.696 0 .37.437.696.935.696zm20.16-3.25c.497 0 .934-.325.934-.696 0-.37-.437-.695-.935-.695H2.805c-.498 0-.935.325-.935.695 0 .371.437.696.935.696zM3.423 7.054h21.152C22.124 3.794 18.195 1.857 14 1.857S5.875 3.794 3.424 7.054zm21.268 9.677v-1.319H11.94l-1.856 1.845a.936.936 0 0 1-.662.271.935.935 0 0 1-.661-.271l-1.856-1.845H3.308v1.32c0 .777.634 1.407 1.413 1.407h18.557c.78 0 1.414-.63 1.414-1.408zM11.444 3.471a.7.7 0 0 1-.206-.493.7.7 0 0 1 1.197-.494.7.7 0 0 1 .206.494.7.7 0 0 1-1.197.493zm4.12 0a.7.7 0 0 1-.206-.493.7.7 0 0 1 .702-.697c.185 0 .365.074.496.203.13.131.206.31.206.494a.705.705 0 0 1-.206.493.708.708 0 0 1-.992 0zM7.322 5.593a.7.7 0 0 1-.206-.493.7.7 0 0 1 .702-.697.71.71 0 0 1 .496.204c.13.13.205.31.205.493a.703.703 0 0 1-.205.493.708.708 0 0 1-.992 0zm12.364 0a.698.698 0 0 1 0-.986.71.71 0 0 1 .992 0c.13.13.205.31.205.493a.704.704 0 0 1-.205.493.709.709 0 0 1-.992 0z"/></svg>