<svg xmlns="http://www.w3.org/2000/svg" width="50" height="39"><path fill="#fff" d="M50 29.751c0 .86-.706 1.555-1.577 1.555H26.577v4.583h3.628c.87 0 1.577.696 1.577 1.554 0 .857-.706 1.553-1.577 1.553h-10.41a1.566 1.566 0 01-1.578-1.553c0-.858.707-1.554 1.578-1.554h3.628v-4.583H1.577A1.566 1.566 0 010 29.75c0-.858.706-1.553 1.577-1.553h2.327V11.805c0-.858.706-1.554 1.577-1.554h4.929V1.55c0-.858.706-1.554 1.577-1.554h26.026c.87 0 1.577.696 1.577 1.554v8.701h4.929c.87 0 1.577.696 1.577 1.554v16.393h2.327c.87 0 1.577.695 1.577 1.553zm-36.435-19.5h22.87V3.104h-22.87zM42.94 13.36H7.058v2.046c.316.056.611.204.839.429.295.289.462.69.462 1.099 0 .408-.167.81-.462 1.097a1.583 1.583 0 01-.839.43v3.585c.629-.071.983-.406 1.625-1.062.837-.857 1.983-2.03 4.172-2.03 2.19 0 3.336 1.173 4.173 2.03.73.746 1.087 1.077 1.9 1.077s1.17-.33 1.9-1.077c.837-.857 1.984-2.03 4.173-2.03s3.335 1.173 4.172 2.03c.73.746 1.087 1.077 1.9 1.077s1.17-.33 1.9-1.077c.837-.857 1.983-2.03 4.172-2.03 2.19 0 3.336 1.173 4.173 2.03.641.656.995.99 1.623 1.062V18.46a1.589 1.589 0 01-.84-.43 1.55 1.55 0 01-.461-1.097c0-.41.168-.81.462-1.099a1.6 1.6 0 01.84-.43zM7.058 28.198h35.883v-3.039c-2.009-.094-3.096-1.201-3.896-2.02-.73-.748-1.087-1.079-1.9-1.079-.812 0-1.17.33-1.9 1.078-.837.856-1.983 2.03-4.172 2.03-2.19 0-3.335-1.174-4.173-2.03-.73-.747-1.087-1.078-1.9-1.078-.812 0-1.169.33-1.899 1.078-.837.856-1.984 2.03-4.173 2.03s-3.336-1.174-4.173-2.03c-.73-.747-1.087-1.078-1.9-1.078s-1.17.33-1.9 1.078c-.8.82-1.887 1.927-3.897 2.021zM17.812 18.03a1.55 1.55 0 01-.462-1.097c0-.41.168-.81.462-1.099a1.597 1.597 0 012.23 0c.295.289.462.69.462 1.099 0 .408-.167.81-.462 1.097-.293.29-.7.456-1.115.456-.415 0-.82-.167-1.115-.456zm12.145 0a1.55 1.55 0 01-.462-1.097c0-.41.168-.81.462-1.099a1.597 1.597 0 012.23 0c.295.289.462.69.462 1.099 0 .408-.167.81-.462 1.097-.293.29-.7.456-1.115.456a1.6 1.6 0 01-1.115-.456zM18.307 5.58c.295.288.462.689.462 1.098 0 .408-.167.81-.462 1.097a1.594 1.594 0 01-2.23 0 1.55 1.55 0 01-.463-1.097c0-.409.17-.81.463-1.098.293-.29.7-.456 1.115-.456.415 0 .822.166 1.115.456zm7.807 0c.295.288.463.689.463 1.098 0 .408-.168.81-.463 1.097a1.595 1.595 0 01-2.23 0 1.55 1.55 0 01-.462-1.097c0-.41.169-.81.462-1.098.294-.29.7-.456 1.115-.456.415 0 .822.166 1.115.456zm7.808 0c.295.288.462.689.462 1.098 0 .408-.169.81-.462 1.097a1.594 1.594 0 01-2.23 0 1.55 1.55 0 01-.462-1.097c0-.41.168-.81.462-1.098a1.594 1.594 0 012.23 0z"/></svg>