<svg xmlns="http://www.w3.org/2000/svg" width="20" height="30" viewBox="0 0 20 30"><path d="M19.988 6.444l-3.275 22.658c-.074.516-.491.896-.98.896H5.905c-.49 0-.907-.38-.981-.896L1.649 6.444c-.044-.304.04-.615.228-.849a.97.97 0 0 1 .753-.368h4.198L6.62 2.111H.992C.444 2.111 0 1.637 0 1.055 0 .471.444-.002.992-.002h6.551c.521 0 .953.428.99.981l.285 4.248h10.19a.97.97 0 0 1 .753.368c.188.234.271.545.228.849zM8.96 7.34l.56 8.345h7.124l1.207-8.345zm-5.173 0l1.206 8.345H7.53L6.97 7.34zm12.552 10.458H9.662l.51 7.583c.038.582-.373 1.087-.92 1.129a1.122 1.122 0 0 1-.072.002c-.516 0-.952-.424-.989-.98l-.52-7.734H5.3l1.458 10.087h8.124z"/></svg>