<svg xmlns="http://www.w3.org/2000/svg" width="28" height="28" viewBox="0 0 28 28"><path d="M28 4.338c0 .558-.463 1.01-1.034 1.01h-9.203v3.445a6.248 6.248 0 0 1 2.378-.467c3.364 0 6.104 2.649 6.15 5.922.21.185.344.452.344.75 0 7.168-5.974 13-13.318 13-7.343 0-13.317-5.832-13.317-13 0-.298.133-.565.343-.75.046-3.273 2.786-5.922 6.15-5.922a6.23 6.23 0 0 1 2.378.469V5.347H8.2A1.022 1.022 0 0 1 7.165 4.34c0-.558.463-1.01 1.034-1.01h.672V2.017H8.2a1.022 1.022 0 0 1-1.034-1.01c0-.557.463-1.009 1.034-1.009h18.767c.57 0 1.034.452 1.034 1.01 0 .557-.463 1.01-1.034 1.01h-9.203v1.311h9.203c.57 0 1.034.452 1.033 1.01zm-12.305-2.32h-1.344v1.311h1.344zM10.94 3.328h1.344V2.017H10.94zm0 2.018v2.76a6.605 6.605 0 0 1 1.344-.357V5.347zm9.774 8.641a.675.675 0 0 0-.844-.255c.005.084.007.17.008.255zM13.317 9.69c-2.448 0-4.443 1.92-4.491 4.3h1.618c.071-1.488 1.333-2.676 2.873-2.676 1.541 0 2.802 1.188 2.873 2.675h1.619c-.048-2.38-2.044-4.3-4.492-4.3zm0 3.642c-.4 0-.731.285-.796.657h1.593a.804.804 0 0 0-.797-.657zm-6.552.401a.675.675 0 0 0-.844.256h.837a6.52 6.52 0 0 1 .007-.256zm-4.34.256h1.351c.174-1.313 1.325-2.332 2.717-2.332.247 0 .485.034.712.094.167-.417.377-.813.626-1.183a4.139 4.139 0 0 0-1.338-.223c-2.133 0-3.889 1.606-4.068 3.644zm22.095 2.019H2.115c.524 5.584 5.348 9.972 11.202 9.972 5.855 0 10.679-4.388 11.203-9.972zm-4.378-5.663c-.47 0-.92.078-1.34.222.25.37.46.766.627 1.182.228-.06.466-.092.713-.092 1.391 0 2.543 1.019 2.716 2.332h1.352c-.18-2.038-1.935-3.644-4.068-3.644zm-4.447-4.997h-1.344V7.75c.467.072.916.194 1.344.357z"/></svg>