<svg xmlns="http://www.w3.org/2000/svg" width="21" height="25" viewBox="0 0 21 25"><path d="M20.755 5.189l-9.657 19.348a.835.835 0 0 1-1.495 0L-.054 5.189a.83.83 0 0 1 .157-.96A14.419 14.419 0 0 1 10.35 0a14.42 14.42 0 0 1 10.248 4.23.83.83 0 0 1 .157.96zm-19.04-.194L2.36 6.29a11.99 11.99 0 0 1 7.99-3.019 11.99 11.99 0 0 1 7.989 3.02l.646-1.295a12.753 12.753 0 0 0-8.636-3.332c-3.225 0-6.269 1.179-8.635 3.332zm5.218 7.262c.453-.24.785-.641.935-1.13.15-.49.1-1.007-.14-1.459a1.903 1.903 0 0 0-1.135-.93 1.91 1.91 0 0 0-1.463.14 1.9 1.9 0 0 0-.926 1.105L5.4 12.38c.024.005.047.01.07.018.49.15 1.01.099 1.463-.14zm5.503 5.863a3.244 3.244 0 0 1-3.61-3.215 3.244 3.244 0 0 1 3.247-3.235 3.25 3.25 0 0 1 2.79 1.585l2.702-5.412a10.328 10.328 0 0 0-7.215-2.908 10.329 10.329 0 0 0-7.214 2.908l.187.375a3.579 3.579 0 0 1 1.023-.81 3.578 3.578 0 0 1 2.735-.263c.917.28 1.67.898 2.12 1.743.45.844.544 1.811.264 2.725-.28.915-.901 1.665-1.748 2.114-.453.24-.942.378-1.439.411l4.072 8.16zm1.213-3.215a1.575 1.575 0 0 0-3.152 0 1.576 1.576 0 0 0 3.152 0zm-1.134-6.62a.83.83 0 0 1 0-1.177.837.837 0 0 1 1.181 0l1.378 1.373a.831.831 0 0 1-.59 1.42.832.832 0 0 1-.591-.243z"/></g></g></svg>