<svg xmlns="http://www.w3.org/2000/svg" width="28" height="22" viewBox="0 0 28 22"><path d="M21.33 21.999H6.635c-1.394 0-2.79-1.09-3.093-2.477-.396-1.807-1.402-7.267-1.402-7.267C1.07 11.393.346 10.405.068 9.173-.238 7.814.025 6.411.773 5.417 1.39 4.601 2.321 4.072 3.4 3.928c1.352-.18 2.813.25 4.016 1.177.797-2.94 3.441-5.107 6.573-5.107 3.155 0 5.816 2.2 6.59 5.175 1.192-.894 2.625-1.306 3.953-1.129 1.078.144 2.01.672 2.626 1.489 1.428 1.894.855 4.955-1.336 6.722 0 0-1.003 5.46-1.398 7.267-.304 1.387-1.7 2.477-3.094 2.477zM9.018 6.659c.878-.252 2.142-.16 3.944.766.267.136.768.524 1.17.847.204-.224.433-.438.687-.637 1.306-1.025 2.897-1.322 4.141-.874-.102-2.711-2.293-4.887-4.973-4.887-2.647 0-4.817 2.121-4.97 4.786zm-4.732 4.91h4.014L3.627 9.183a.568.568 0 0 1-.246-.755.548.548 0 0 1 .741-.251l6.646 3.392h2.183a3.558 3.558 0 0 1 .195-1.698c-.425-.346-.878-.697-1.015-.772-.676-.348-2.325-1.086-2.98-.416a.907.907 0 0 1-.842.255.925.925 0 0 1-.669-.58 4.05 4.05 0 0 0-1.303-1.732c-.828-.65-1.812-.955-2.7-.837-.417.056-.999.235-1.403.77-.411.547-.554 1.387-.372 2.194.18.8.748 1.96 2.425 2.816zm19.5 1.876H4.179L5.337 19.1c.14.536.755 1.022 1.3 1.022h14.692c.544 0 1.159-.486 1.3-1.022zm-4.262-1.876h3.08c.69-.078 1.373-.386 1.974-.858 1.441-1.13 1.942-2.94 1.117-4.036-.404-.536-.986-.715-1.403-.771-.888-.118-1.872.187-2.7.837a4.059 4.059 0 0 0-1.303 1.734.925.925 0 0 1-.67.579.907.907 0 0 1-.841-.256c-.58-.594-1.852-.449-2.835.323-.937.736-1.374 1.752-1.098 2.448h2.355l5.105-2.81a.547.547 0 0 1 .749.227.568.568 0 0 1-.224.762l-3.306 1.82zm-6.09-7.112v-.94c0-.31.248-.562.553-.562.305 0 .552.252.552.563v.939c0 .31-.247.562-.552.562a.558.558 0 0 1-.553-.562zm2.194.5l.46-.813a.547.547 0 0 1 .754-.207.57.57 0 0 1 .203.769l-.46.813a.55.55 0 0 1-.48.282.535.535 0 0 1-.274-.076.568.568 0 0 1-.203-.768zm-4.699-.25a.57.57 0 0 1 .203-.77.547.547 0 0 1 .754.207l.46.813a.568.568 0 0 1-.203.768.535.535 0 0 1-.275.076.55.55 0 0 1-.479-.282z"/></svg>