<svg xmlns="http://www.w3.org/2000/svg" width="51" height="43"><path fill="#fff" d="M49.507 16.1L32.03 26.975v3.34c0 2.042-1.55 3.851-4.366 5.099-2.41 1.064-5.578 1.652-8.922 1.652-.923 0-1.832-.046-2.716-.132l-8.16 5.075a1.578 1.578 0 01-2.173-.499 1.567 1.567 0 01.502-2.165l5.311-3.304a16.143 16.143 0 01-1.686-.627c-2.816-1.248-4.366-3.057-4.366-5.1v-.7L2.76 31.58a1.577 1.577 0 01-2.205-.338 1.566 1.566 0 01.34-2.196l4.56-3.328v-7.997c0-2.042 1.55-3.853 4.367-5.099 2.408-1.065 5.577-1.653 8.92-1.653 2.116 0 4.16.236 5.988.678L39.93.55a1.582 1.582 0 012.205.338c.515.7.363 1.681-.34 2.195l-13.488 9.846c2.408 1.227 3.723 2.912 3.723 4.793v5.548l15.804-9.832a1.582 1.582 0 012.174.5 1.566 1.566 0 01-.502 2.163zM8.609 17.723c0 1.437 4.042 3.61 10.134 3.61 6.092 0 10.134-2.173 10.134-3.61 0-1.438-4.042-3.612-10.134-3.612-6.092 0-10.134 2.174-10.134 3.612zm6.694 15.958l13.574-8.447v-3.03c-.374.218-.778.424-1.212.617-2.41 1.066-5.578 1.652-8.922 1.652-3.344 0-6.512-.586-8.922-1.652a12.214 12.214 0 01-1.212-.617v8.11c0 1.146 2.568 2.757 6.694 3.367zm13.574-4.744l-7.846 4.881c4.794-.452 7.846-2.255 7.846-3.503zM13.906 17.722c0-.71.38-1.643 2.19-2.044.725-.16 1.665-.247 2.647-.247.982 0 1.922.087 2.647.247 1.81.4 2.19 1.333 2.19 2.044 0 .71-.38 1.64-2.19 2.042-.725.159-1.665.248-2.647.248-.982 0-1.922-.089-2.647-.248-1.81-.402-2.19-1.332-2.19-2.042z"/></svg>