<svg xmlns="http://www.w3.org/2000/svg" width="36" height="31" viewBox="0 0 36 31"><path d="M.919 10.027a1.094 1.094 0 0 1 1.521-.356l11.063 7.023V12.73c0-1.344.92-2.546 2.606-3.423L6.667 2.273A1.133 1.133 0 0 1 6.43.706a1.093 1.093 0 0 1 1.543-.24L18.614 8.39c1.279-.316 2.71-.483 4.19-.483 2.341 0 4.56.418 6.246 1.18 1.971.89 3.056 2.183 3.056 3.642v5.712L35.3 20.82c.491.367.598 1.068.237 1.567a1.096 1.096 0 0 1-1.543.242l-1.887-1.405v.5c0 1.46-1.085 2.753-3.056 3.642-.37.167-.765.316-1.18.449l3.718 2.36c.517.329.674 1.02.35 1.545a1.09 1.09 0 0 1-1.521.357l-5.71-3.625c-.62.062-1.256.094-1.902.094-2.34 0-4.559-.419-6.245-1.18-1.972-.89-3.057-2.183-3.057-3.641v-2.386L1.27 11.572a1.132 1.132 0 0 1-.351-1.545zm21.886.123c-4.265 0-7.094 1.553-7.094 2.58 0 1.027 2.83 2.579 7.094 2.579s7.093-1.552 7.093-2.579c0-1.027-2.829-2.58-7.093-2.58zm7.093 11.575v-5.793a8.387 8.387 0 0 1-.848.439c-1.687.762-3.905 1.18-6.245 1.18-2.34 0-4.559-.418-6.245-1.18a8.386 8.386 0 0 1-.849-.44v2.165l9.502 6.033c2.888-.435 4.685-1.586 4.685-2.404zm-14.187 0c0 .891 2.136 2.18 5.492 2.503l-5.492-3.487zm8.947-7.537c-.508.115-1.166.178-1.853.178-.688 0-1.346-.063-1.853-.178-1.267-.286-1.533-.95-1.533-1.458s.266-1.173 1.533-1.46c.507-.114 1.165-.177 1.853-.177.687 0 1.345.063 1.853.178 1.267.286 1.533.951 1.533 1.46 0 .506-.266 1.171-1.533 1.457z"/></svg>